<mxfile host="app.diagrams.net" agent="Mozilla/5.0 (Macintosh; Intel Mac OS X 10_15_7) AppleWebKit/537.36 (KHTML, like Gecko) Chrome/129.0.0.0 Safari/537.36" version="24.7.16">
  <diagram name="Page-1" id="xDpLKtWD0tikjypAw22L">
    <mxGraphModel dx="1781" dy="1815" grid="1" gridSize="10" guides="1" tooltips="1" connect="1" arrows="1" fold="1" page="1" pageScale="1" pageWidth="827" pageHeight="1169" math="0" shadow="0">
      <root>
        <mxCell id="0" />
        <mxCell id="1" parent="0" />
        <UserObject label="" plantUmlData="{&quot;data&quot;:&quot;@startuml\ntitle Member Onboarding Workflow\n\nactor Member #LightBlue\nparticipant \&quot;Member Management Service\&quot; as MMS #LightGreen\nparticipant \&quot;Admin Service\&quot; as AS #LightYellow\nparticipant \&quot;Wallet Service\&quot; as WS #LightPink\nparticipant \&quot;Notification Service\&quot; as NS #LightSkyBlue\nparticipant \&quot;Core Banking Engine\&quot; as CBE #LightGray\n\n&#39;Member submits registration details\nMember -&gt; MMS: Submit registration details + KYC documents\nMMS -&gt; MMS: Validate inputs and store details\n\n&#39;Admin approval process\nMMS -&gt; AS: Notify admin of pending application\nAS -&gt; Admin: Admin reviews pending applications\nAdmin -&gt; AS: Approve member\nAS -&gt; MMS: Update member status to \&quot;Approved\&quot;\nMMS -&gt; MMS: Generate SACCO ID\n\n&#39;Payment and activation flow (critical flow starts here)\nMember -&gt; WS: Pay registration fee #Red\nWS -&gt; CBE: Create journal entry for registration fee #Red\nWS -&gt; MMS: Notify of payment completion #Red\n\nMMS -&gt; MMS: Mark member as \&quot;Active\&quot;\nMMS -&gt; NS: Send SMS + email confirmation\nNS -&gt; Member: Confirmation received\n@enduml&quot;,&quot;format&quot;:&quot;svg&quot;}" id="AoYrLWxrWw_sPU3_he-3-1">
          <mxCell style="shape=image;noLabel=1;verticalAlign=top;aspect=fixed;imageAspect=0;image=data:image/svg+xml,PD94bWwgdmVyc2lvbj0iMS4wIiBlbmNvZGluZz0idXMtYXNjaWkiIHN0YW5kYWxvbmU9Im5vIj8+PHN2ZyB4bWxucz0iaHR0cDovL3d3dy53My5vcmcvMjAwMC9zdmciIHhtbG5zOnhsaW5rPSJodHRwOi8vd3d3LnczLm9yZy8xOTk5L3hsaW5rIiBjb250ZW50U3R5bGVUeXBlPSJ0ZXh0L2NzcyIgaGVpZ2h0PSI2MTdweCIgcHJlc2VydmVBc3BlY3RSYXRpbz0ibm9uZSIgc3R5bGU9IndpZHRoOjExOTZweDtoZWlnaHQ6NjE3cHg7YmFja2dyb3VuZDojRkZGRkZGOyIgdmVyc2lvbj0iMS4xIiB2aWV3Qm94PSIwIDAgMTE5NiA2MTciIHdpZHRoPSIxMTk2cHgiIHpvb21BbmRQYW49Im1hZ25pZnkiPjxkZWZzLz48Zz48dGV4dCBmaWxsPSIjMDAwMDAwIiBmb250LWZhbWlseT0ic2Fucy1zZXJpZiIgZm9udC1zaXplPSIxNCIgZm9udC13ZWlnaHQ9ImJvbGQiIGxlbmd0aEFkanVzdD0ic3BhY2luZyIgdGV4dExlbmd0aD0iMTg0IiB4PSI1MDUiIHk9IjI4LjIzNDQiPk1lbWJlciBPbmJvYXJkaW5nIFdvcmtmbG93PC90ZXh0PjxsaW5lIHN0eWxlPSJzdHJva2U6IzE4MTgxODtzdHJva2Utd2lkdGg6MC41O3N0cm9rZS1kYXNoYXJyYXk6NS4wLDUuMDsiIHgxPSIyOSIgeDI9IjI5IiB5MT0iMTE1Ljk2ODgiIHkyPSI1MzcuODUxNiIvPjxsaW5lIHN0eWxlPSJzdHJva2U6IzE4MTgxODtzdHJva2Utd2lkdGg6MC41O3N0cm9rZS1kYXNoYXJyYXk6NS4wLDUuMDsiIHgxPSIzNDEiIHgyPSIzNDEiIHkxPSIxMTUuOTY4OCIgeTI9IjUzNy44NTE2Ii8+PGxpbmUgc3R5bGU9InN0cm9rZTojMTgxODE4O3N0cm9rZS13aWR0aDowLjU7c3Ryb2tlLWRhc2hhcnJheTo1LjAsNS4wOyIgeDE9IjU5OS41IiB4Mj0iNTk5LjUiIHkxPSIxMTUuOTY4OCIgeTI9IjUzNy44NTE2Ii8+PGxpbmUgc3R5bGU9InN0cm9rZTojMTgxODE4O3N0cm9rZS13aWR0aDowLjU7c3Ryb2tlLWRhc2hhcnJheTo1LjAsNS4wOyIgeDE9IjcxOC41IiB4Mj0iNzE4LjUiIHkxPSIxMTUuOTY4OCIgeTI9IjUzNy44NTE2Ii8+PGxpbmUgc3R5bGU9InN0cm9rZTojMTgxODE4O3N0cm9rZS13aWR0aDowLjU7c3Ryb2tlLWRhc2hhcnJheTo1LjAsNS4wOyIgeDE9Ijg2MS41IiB4Mj0iODYxLjUiIHkxPSIxMTUuOTY4OCIgeTI9IjUzNy44NTE2Ii8+PGxpbmUgc3R5bGU9InN0cm9rZTojMTgxODE4O3N0cm9rZS13aWR0aDowLjU7c3Ryb2tlLWRhc2hhcnJheTo1LjAsNS4wOyIgeDE9IjEwNTYiIHgyPSIxMDU2IiB5MT0iMTE1Ljk2ODgiIHkyPSI1MzcuODUxNiIvPjxsaW5lIHN0eWxlPSJzdHJva2U6IzE4MTgxODtzdHJva2Utd2lkdGg6MC41O3N0cm9rZS1kYXNoYXJyYXk6NS4wLDUuMDsiIHgxPSIxMTY1IiB4Mj0iMTE2NSIgeTE9IjExNS45Njg4IiB5Mj0iNTM3Ljg1MTYiLz48dGV4dCBmaWxsPSIjMDAwMDAwIiBmb250LWZhbWlseT0ic2Fucy1zZXJpZiIgZm9udC1zaXplPSIxNCIgbGVuZ3RoQWRqdXN0PSJzcGFjaW5nIiB0ZXh0TGVuZ3RoPSI0MyIgeD0iNSIgeT0iMTE0LjIxODgiPk1lbWJlcjwvdGV4dD48ZWxsaXBzZSBjeD0iMjkuNSIgY3k9IjQ5LjQ4NDQiIGZpbGw9IiNBREQ4RTYiIHJ4PSI4IiByeT0iOCIgc3R5bGU9InN0cm9rZTojMTgxODE4O3N0cm9rZS13aWR0aDowLjU7Ii8+PHBhdGggZD0iTTI5LjUsNTcuNDg0NCBMMjkuNSw4NC40ODQ0IE0xNi41LDY1LjQ4NDQgTDQyLjUsNjUuNDg0NCBNMjkuNSw4NC40ODQ0IEwxNi41LDk5LjQ4NDQgTTI5LjUsODQuNDg0NCBMNDIuNSw5OS40ODQ0ICIgZmlsbD0ibm9uZSIgc3R5bGU9InN0cm9rZTojMTgxODE4O3N0cm9rZS13aWR0aDowLjU7Ii8+PHRleHQgZmlsbD0iIzAwMDAwMCIgZm9udC1mYW1pbHk9InNhbnMtc2VyaWYiIGZvbnQtc2l6ZT0iMTQiIGxlbmd0aEFkanVzdD0ic3BhY2luZyIgdGV4dExlbmd0aD0iNDMiIHg9IjUiIHk9IjU1MC4wODU5Ij5NZW1iZXI8L3RleHQ+PGVsbGlwc2UgY3g9IjI5LjUiIGN5PSI1NjAuMzM1OSIgZmlsbD0iI0FERDhFNiIgcng9IjgiIHJ5PSI4IiBzdHlsZT0ic3Ryb2tlOiMxODE4MTg7c3Ryb2tlLXdpZHRoOjAuNTsiLz48cGF0aCBkPSJNMjkuNSw1NjguMzM1OSBMMjkuNSw1OTUuMzM1OSBNMTYuNSw1NzYuMzM1OSBMNDIuNSw1NzYuMzM1OSBNMjkuNSw1OTUuMzM1OSBMMTYuNSw2MTAuMzM1OSBNMjkuNSw1OTUuMzM1OSBMNDIuNSw2MTAuMzM1OSAiIGZpbGw9Im5vbmUiIHN0eWxlPSJzdHJva2U6IzE4MTgxODtzdHJva2Utd2lkdGg6MC41OyIvPjxyZWN0IGZpbGw9IiM5MEVFOTAiIGhlaWdodD0iMjguOTg0NCIgcng9IjIuNSIgcnk9IjIuNSIgc3R5bGU9InN0cm9rZTojMTgxODE4O3N0cm9rZS13aWR0aDowLjU7IiB3aWR0aD0iMTkxIiB4PSIyNDYiIHk9Ijg1Ljk4NDQiLz48dGV4dCBmaWxsPSIjMDAwMDAwIiBmb250LWZhbWlseT0ic2Fucy1zZXJpZiIgZm9udC1zaXplPSIxNCIgbGVuZ3RoQWRqdXN0PSJzcGFjaW5nIiB0ZXh0TGVuZ3RoPSIxNzciIHg9IjI1MyIgeT0iMTA2LjIxODgiPk1lbWJlciBNYW5hZ2VtZW50IFNlcnZpY2U8L3RleHQ+PHJlY3QgZmlsbD0iIzkwRUU5MCIgaGVpZ2h0PSIyOC45ODQ0IiByeD0iMi41IiByeT0iMi41IiBzdHlsZT0ic3Ryb2tlOiMxODE4MTg7c3Ryb2tlLXdpZHRoOjAuNTsiIHdpZHRoPSIxOTEiIHg9IjI0NiIgeT0iNTM2Ljg1MTYiLz48dGV4dCBmaWxsPSIjMDAwMDAwIiBmb250LWZhbWlseT0ic2Fucy1zZXJpZiIgZm9udC1zaXplPSIxNCIgbGVuZ3RoQWRqdXN0PSJzcGFjaW5nIiB0ZXh0TGVuZ3RoPSIxNzciIHg9IjI1MyIgeT0iNTU3LjA4NTkiPk1lbWJlciBNYW5hZ2VtZW50IFNlcnZpY2U8L3RleHQ+PHJlY3QgZmlsbD0iI0ZGRkZFMCIgaGVpZ2h0PSIyOC45ODQ0IiByeD0iMi41IiByeT0iMi41IiBzdHlsZT0ic3Ryb2tlOiMxODE4MTg7c3Ryb2tlLXdpZHRoOjAuNTsiIHdpZHRoPSIxMDYiIHg9IjU0Ni41IiB5PSI4NS45ODQ0Ii8+PHRleHQgZmlsbD0iIzAwMDAwMCIgZm9udC1mYW1pbHk9InNhbnMtc2VyaWYiIGZvbnQtc2l6ZT0iMTQiIGxlbmd0aEFkanVzdD0ic3BhY2luZyIgdGV4dExlbmd0aD0iOTIiIHg9IjU1My41IiB5PSIxMDYuMjE4OCI+QWRtaW4gU2VydmljZTwvdGV4dD48cmVjdCBmaWxsPSIjRkZGRkUwIiBoZWlnaHQ9IjI4Ljk4NDQiIHJ4PSIyLjUiIHJ5PSIyLjUiIHN0eWxlPSJzdHJva2U6IzE4MTgxODtzdHJva2Utd2lkdGg6MC41OyIgd2lkdGg9IjEwNiIgeD0iNTQ2LjUiIHk9IjUzNi44NTE2Ii8+PHRleHQgZmlsbD0iIzAwMDAwMCIgZm9udC1mYW1pbHk9InNhbnMtc2VyaWYiIGZvbnQtc2l6ZT0iMTQiIGxlbmd0aEFkanVzdD0ic3BhY2luZyIgdGV4dExlbmd0aD0iOTIiIHg9IjU1My41IiB5PSI1NTcuMDg1OSI+QWRtaW4gU2VydmljZTwvdGV4dD48cmVjdCBmaWxsPSIjRkZCNkMxIiBoZWlnaHQ9IjI4Ljk4NDQiIHJ4PSIyLjUiIHJ5PSIyLjUiIHN0eWxlPSJzdHJva2U6IzE4MTgxODtzdHJva2Utd2lkdGg6MC41OyIgd2lkdGg9IjExMiIgeD0iNjYyLjUiIHk9Ijg1Ljk4NDQiLz48dGV4dCBmaWxsPSIjMDAwMDAwIiBmb250LWZhbWlseT0ic2Fucy1zZXJpZiIgZm9udC1zaXplPSIxNCIgbGVuZ3RoQWRqdXN0PSJzcGFjaW5nIiB0ZXh0TGVuZ3RoPSI5OCIgeD0iNjY5LjUiIHk9IjEwNi4yMTg4Ij5XYWxsZXQgU2VydmljZTwvdGV4dD48cmVjdCBmaWxsPSIjRkZCNkMxIiBoZWlnaHQ9IjI4Ljk4NDQiIHJ4PSIyLjUiIHJ5PSIyLjUiIHN0eWxlPSJzdHJva2U6IzE4MTgxODtzdHJva2Utd2lkdGg6MC41OyIgd2lkdGg9IjExMiIgeD0iNjYyLjUiIHk9IjUzNi44NTE2Ii8+PHRleHQgZmlsbD0iIzAwMDAwMCIgZm9udC1mYW1pbHk9InNhbnMtc2VyaWYiIGZvbnQtc2l6ZT0iMTQiIGxlbmd0aEFkanVzdD0ic3BhY2luZyIgdGV4dExlbmd0aD0iOTgiIHg9IjY2OS41IiB5PSI1NTcuMDg1OSI+V2FsbGV0IFNlcnZpY2U8L3RleHQ+PHJlY3QgZmlsbD0iIzg3Q0VGQSIgaGVpZ2h0PSIyOC45ODQ0IiByeD0iMi41IiByeT0iMi41IiBzdHlsZT0ic3Ryb2tlOiMxODE4MTg7c3Ryb2tlLXdpZHRoOjAuNTsiIHdpZHRoPSIxNTQiIHg9Ijc4NC41IiB5PSI4NS45ODQ0Ii8+PHRleHQgZmlsbD0iIzAwMDAwMCIgZm9udC1mYW1pbHk9InNhbnMtc2VyaWYiIGZvbnQtc2l6ZT0iMTQiIGxlbmd0aEFkanVzdD0ic3BhY2luZyIgdGV4dExlbmd0aD0iMTQwIiB4PSI3OTEuNSIgeT0iMTA2LjIxODgiPk5vdGlmaWNhdGlvbiBTZXJ2aWNlPC90ZXh0PjxyZWN0IGZpbGw9IiM4N0NFRkEiIGhlaWdodD0iMjguOTg0NCIgcng9IjIuNSIgcnk9IjIuNSIgc3R5bGU9InN0cm9rZTojMTgxODE4O3N0cm9rZS13aWR0aDowLjU7IiB3aWR0aD0iMTU0IiB4PSI3ODQuNSIgeT0iNTM2Ljg1MTYiLz48dGV4dCBmaWxsPSIjMDAwMDAwIiBmb250LWZhbWlseT0ic2Fucy1zZXJpZiIgZm9udC1zaXplPSIxNCIgbGVuZ3RoQWRqdXN0PSJzcGFjaW5nIiB0ZXh0TGVuZ3RoPSIxNDAiIHg9Ijc5MS41IiB5PSI1NTcuMDg1OSI+Tm90aWZpY2F0aW9uIFNlcnZpY2U8L3RleHQ+PHJlY3QgZmlsbD0iI0QzRDNEMyIgaGVpZ2h0PSIyOC45ODQ0IiByeD0iMi41IiByeT0iMi41IiBzdHlsZT0ic3Ryb2tlOiMxODE4MTg7c3Ryb2tlLXdpZHRoOjAuNTsiIHdpZHRoPSIxNDciIHg9Ijk4MyIgeT0iODUuOTg0NCIvPjx0ZXh0IGZpbGw9IiMwMDAwMDAiIGZvbnQtZmFtaWx5PSJzYW5zLXNlcmlmIiBmb250LXNpemU9IjE0IiBsZW5ndGhBZGp1c3Q9InNwYWNpbmciIHRleHRMZW5ndGg9IjEzMyIgeD0iOTkwIiB5PSIxMDYuMjE4OCI+Q29yZSBCYW5raW5nIEVuZ2luZTwvdGV4dD48cmVjdCBmaWxsPSIjRDNEM0QzIiBoZWlnaHQ9IjI4Ljk4NDQiIHJ4PSIyLjUiIHJ5PSIyLjUiIHN0eWxlPSJzdHJva2U6IzE4MTgxODtzdHJva2Utd2lkdGg6MC41OyIgd2lkdGg9IjE0NyIgeD0iOTgzIiB5PSI1MzYuODUxNiIvPjx0ZXh0IGZpbGw9IiMwMDAwMDAiIGZvbnQtZmFtaWx5PSJzYW5zLXNlcmlmIiBmb250LXNpemU9IjE0IiBsZW5ndGhBZGp1c3Q9InNwYWNpbmciIHRleHRMZW5ndGg9IjEzMyIgeD0iOTkwIiB5PSI1NTcuMDg1OSI+Q29yZSBCYW5raW5nIEVuZ2luZTwvdGV4dD48cmVjdCBmaWxsPSIjRTJFMkYwIiBoZWlnaHQ9IjI4Ljk4NDQiIHJ4PSIyLjUiIHJ5PSIyLjUiIHN0eWxlPSJzdHJva2U6IzE4MTgxODtzdHJva2Utd2lkdGg6MC41OyIgd2lkdGg9IjUwIiB4PSIxMTQwIiB5PSI4NS45ODQ0Ii8+PHRleHQgZmlsbD0iIzAwMDAwMCIgZm9udC1mYW1pbHk9InNhbnMtc2VyaWYiIGZvbnQtc2l6ZT0iMTQiIGxlbmd0aEFkanVzdD0ic3BhY2luZyIgdGV4dExlbmd0aD0iMzYiIHg9IjExNDciIHk9IjEwNi4yMTg4Ij5BZG1pbjwvdGV4dD48cmVjdCBmaWxsPSIjRTJFMkYwIiBoZWlnaHQ9IjI4Ljk4NDQiIHJ4PSIyLjUiIHJ5PSIyLjUiIHN0eWxlPSJzdHJva2U6IzE4MTgxODtzdHJva2Utd2lkdGg6MC41OyIgd2lkdGg9IjUwIiB4PSIxMTQwIiB5PSI1MzYuODUxNiIvPjx0ZXh0IGZpbGw9IiMwMDAwMDAiIGZvbnQtZmFtaWx5PSJzYW5zLXNlcmlmIiBmb250LXNpemU9IjE0IiBsZW5ndGhBZGp1c3Q9InNwYWNpbmciIHRleHRMZW5ndGg9IjM2IiB4PSIxMTQ3IiB5PSI1NTcuMDg1OSI+QWRtaW48L3RleHQ+PHBvbHlnb24gZmlsbD0iIzE4MTgxOCIgcG9pbnRzPSIzMjkuNSwxNDEuODgyOCwzMzkuNSwxNDUuODgyOCwzMjkuNSwxNDkuODgyOCwzMzMuNSwxNDUuODgyOCIgc3R5bGU9InN0cm9rZTojMTgxODE4O3N0cm9rZS13aWR0aDoxLjA7Ii8+PGxpbmUgc3R5bGU9InN0cm9rZTojMTgxODE4O3N0cm9rZS13aWR0aDoxLjA7IiB4MT0iMjkuNSIgeDI9IjMzNS41IiB5MT0iMTQ1Ljg4MjgiIHkyPSIxNDUuODgyOCIvPjx0ZXh0IGZpbGw9IiMwMDAwMDAiIGZvbnQtZmFtaWx5PSJzYW5zLXNlcmlmIiBmb250LXNpemU9IjEzIiBsZW5ndGhBZGp1c3Q9InNwYWNpbmciIHRleHRMZW5ndGg9IjI4OCIgeD0iMzYuNSIgeT0iMTQyLjI1NzgiPlN1Ym1pdCByZWdpc3RyYXRpb24gZGV0YWlscyArIEtZQyBkb2N1bWVudHM8L3RleHQ+PGxpbmUgc3R5bGU9InN0cm9rZTojMTgxODE4O3N0cm9rZS13aWR0aDoxLjA7IiB4MT0iMzQxLjUiIHgyPSIzODMuNSIgeTE9IjE3My43OTY5IiB5Mj0iMTczLjc5NjkiLz48bGluZSBzdHlsZT0ic3Ryb2tlOiMxODE4MTg7c3Ryb2tlLXdpZHRoOjEuMDsiIHgxPSIzODMuNSIgeDI9IjM4My41IiB5MT0iMTczLjc5NjkiIHkyPSIxODYuNzk2OSIvPjxsaW5lIHN0eWxlPSJzdHJva2U6IzE4MTgxODtzdHJva2Utd2lkdGg6MS4wOyIgeDE9IjM0Mi41IiB4Mj0iMzgzLjUiIHkxPSIxODYuNzk2OSIgeTI9IjE4Ni43OTY5Ii8+PHBvbHlnb24gZmlsbD0iIzE4MTgxOCIgcG9pbnRzPSIzNTIuNSwxODIuNzk2OSwzNDIuNSwxODYuNzk2OSwzNTIuNSwxOTAuNzk2OSwzNDguNSwxODYuNzk2OSIgc3R5bGU9InN0cm9rZTojMTgxODE4O3N0cm9rZS13aWR0aDoxLjA7Ii8+PHRleHQgZmlsbD0iIzAwMDAwMCIgZm9udC1mYW1pbHk9InNhbnMtc2VyaWYiIGZvbnQtc2l6ZT0iMTMiIGxlbmd0aEFkanVzdD0ic3BhY2luZyIgdGV4dExlbmd0aD0iMjIyIiB4PSIzNDguNSIgeT0iMTcwLjE3MTkiPlZhbGlkYXRlIGlucHV0cyBhbmQgc3RvcmUgZGV0YWlsczwvdGV4dD48cG9seWdvbiBmaWxsPSIjMTgxODE4IiBwb2ludHM9IjU4Ny41LDIxMC43MTA5LDU5Ny41LDIxNC43MTA5LDU4Ny41LDIxOC43MTA5LDU5MS41LDIxNC43MTA5IiBzdHlsZT0ic3Ryb2tlOiMxODE4MTg7c3Ryb2tlLXdpZHRoOjEuMDsiLz48bGluZSBzdHlsZT0ic3Ryb2tlOiMxODE4MTg7c3Ryb2tlLXdpZHRoOjEuMDsiIHgxPSIzNDEuNSIgeDI9IjU5My41IiB5MT0iMjE0LjcxMDkiIHkyPSIyMTQuNzEwOSIvPjx0ZXh0IGZpbGw9IiMwMDAwMDAiIGZvbnQtZmFtaWx5PSJzYW5zLXNlcmlmIiBmb250LXNpemU9IjEzIiBsZW5ndGhBZGp1c3Q9InNwYWNpbmciIHRleHRMZW5ndGg9IjIzNCIgeD0iMzQ4LjUiIHk9IjIxMS4wODU5Ij5Ob3RpZnkgYWRtaW4gb2YgcGVuZGluZyBhcHBsaWNhdGlvbjwvdGV4dD48cG9seWdvbiBmaWxsPSIjMTgxODE4IiBwb2ludHM9IjExNTMsMjM4LjYyNSwxMTYzLDI0Mi42MjUsMTE1MywyNDYuNjI1LDExNTcsMjQyLjYyNSIgc3R5bGU9InN0cm9rZTojMTgxODE4O3N0cm9rZS13aWR0aDoxLjA7Ii8+PGxpbmUgc3R5bGU9InN0cm9rZTojMTgxODE4O3N0cm9rZS13aWR0aDoxLjA7IiB4MT0iNTk5LjUiIHgyPSIxMTU5IiB5MT0iMjQyLjYyNSIgeTI9IjI0Mi42MjUiLz48dGV4dCBmaWxsPSIjMDAwMDAwIiBmb250LWZhbWlseT0ic2Fucy1zZXJpZiIgZm9udC1zaXplPSIxMyIgbGVuZ3RoQWRqdXN0PSJzcGFjaW5nIiB0ZXh0TGVuZ3RoPSIyMjkiIHg9IjYwNi41IiB5PSIyMzkiPkFkbWluIHJldmlld3MgcGVuZGluZyBhcHBsaWNhdGlvbnM8L3RleHQ+PHBvbHlnb24gZmlsbD0iIzE4MTgxOCIgcG9pbnRzPSI2MTAuNSwyNjYuNTM5MSw2MDAuNSwyNzAuNTM5MSw2MTAuNSwyNzQuNTM5MSw2MDYuNSwyNzAuNTM5MSIgc3R5bGU9InN0cm9rZTojMTgxODE4O3N0cm9rZS13aWR0aDoxLjA7Ii8+PGxpbmUgc3R5bGU9InN0cm9rZTojMTgxODE4O3N0cm9rZS13aWR0aDoxLjA7IiB4MT0iNjA0LjUiIHgyPSIxMTY0IiB5MT0iMjcwLjUzOTEiIHkyPSIyNzAuNTM5MSIvPjx0ZXh0IGZpbGw9IiMwMDAwMDAiIGZvbnQtZmFtaWx5PSJzYW5zLXNlcmlmIiBmb250LXNpemU9IjEzIiBsZW5ndGhBZGp1c3Q9InNwYWNpbmciIHRleHRMZW5ndGg9Ijk2IiB4PSI2MTYuNSIgeT0iMjY2LjkxNDEiPkFwcHJvdmUgbWVtYmVyPC90ZXh0Pjxwb2x5Z29uIGZpbGw9IiMxODE4MTgiIHBvaW50cz0iMzUyLjUsMjk0LjQ1MzEsMzQyLjUsMjk4LjQ1MzEsMzUyLjUsMzAyLjQ1MzEsMzQ4LjUsMjk4LjQ1MzEiIHN0eWxlPSJzdHJva2U6IzE4MTgxODtzdHJva2Utd2lkdGg6MS4wOyIvPjxsaW5lIHN0eWxlPSJzdHJva2U6IzE4MTgxODtzdHJva2Utd2lkdGg6MS4wOyIgeDE9IjM0Ni41IiB4Mj0iNTk4LjUiIHkxPSIyOTguNDUzMSIgeTI9IjI5OC40NTMxIi8+PHRleHQgZmlsbD0iIzAwMDAwMCIgZm9udC1mYW1pbHk9InNhbnMtc2VyaWYiIGZvbnQtc2l6ZT0iMTMiIGxlbmd0aEFkanVzdD0ic3BhY2luZyIgdGV4dExlbmd0aD0iMjMyIiB4PSIzNTguNSIgeT0iMjk0LjgyODEiPlVwZGF0ZSBtZW1iZXIgc3RhdHVzIHRvICJBcHByb3ZlZCI8L3RleHQ+PGxpbmUgc3R5bGU9InN0cm9rZTojMTgxODE4O3N0cm9rZS13aWR0aDoxLjA7IiB4MT0iMzQxLjUiIHgyPSIzODMuNSIgeTE9IjMyNi4zNjcyIiB5Mj0iMzI2LjM2NzIiLz48bGluZSBzdHlsZT0ic3Ryb2tlOiMxODE4MTg7c3Ryb2tlLXdpZHRoOjEuMDsiIHgxPSIzODMuNSIgeDI9IjM4My41IiB5MT0iMzI2LjM2NzIiIHkyPSIzMzkuMzY3MiIvPjxsaW5lIHN0eWxlPSJzdHJva2U6IzE4MTgxODtzdHJva2Utd2lkdGg6MS4wOyIgeDE9IjM0Mi41IiB4Mj0iMzgzLjUiIHkxPSIzMzkuMzY3MiIgeTI9IjMzOS4zNjcyIi8+PHBvbHlnb24gZmlsbD0iIzE4MTgxOCIgcG9pbnRzPSIzNTIuNSwzMzUuMzY3MiwzNDIuNSwzMzkuMzY3MiwzNTIuNSwzNDMuMzY3MiwzNDguNSwzMzkuMzY3MiIgc3R5bGU9InN0cm9rZTojMTgxODE4O3N0cm9rZS13aWR0aDoxLjA7Ii8+PHRleHQgZmlsbD0iIzAwMDAwMCIgZm9udC1mYW1pbHk9InNhbnMtc2VyaWYiIGZvbnQtc2l6ZT0iMTMiIGxlbmd0aEFkanVzdD0ic3BhY2luZyIgdGV4dExlbmd0aD0iMTE3IiB4PSIzNDguNSIgeT0iMzIyLjc0MjIiPkdlbmVyYXRlIFNBQ0NPIElEPC90ZXh0Pjxwb2x5Z29uIGZpbGw9IiMxODE4MTgiIHBvaW50cz0iNzA2LjUsMzYzLjI4MTMsNzE2LjUsMzY3LjI4MTMsNzA2LjUsMzcxLjI4MTMsNzEwLjUsMzY3LjI4MTMiIHN0eWxlPSJzdHJva2U6IzE4MTgxODtzdHJva2Utd2lkdGg6MS4wOyIvPjxsaW5lIHN0eWxlPSJzdHJva2U6IzE4MTgxODtzdHJva2Utd2lkdGg6MS4wOyIgeDE9IjI5LjUiIHgyPSI3MTIuNSIgeTE9IjM2Ny4yODEzIiB5Mj0iMzY3LjI4MTMiLz48dGV4dCBmaWxsPSIjMDAwMDAwIiBmb250LWZhbWlseT0ic2Fucy1zZXJpZiIgZm9udC1zaXplPSIxMyIgbGVuZ3RoQWRqdXN0PSJzcGFjaW5nIiB0ZXh0TGVuZ3RoPSIxNzEiIHg9IjM2LjUiIHk9IjM2My42NTYzIj5QYXkgcmVnaXN0cmF0aW9uIGZlZSAjUmVkPC90ZXh0Pjxwb2x5Z29uIGZpbGw9IiMxODE4MTgiIHBvaW50cz0iMTA0NC41LDM5MS4xOTUzLDEwNTQuNSwzOTUuMTk1MywxMDQ0LjUsMzk5LjE5NTMsMTA0OC41LDM5NS4xOTUzIiBzdHlsZT0ic3Ryb2tlOiMxODE4MTg7c3Ryb2tlLXdpZHRoOjEuMDsiLz48bGluZSBzdHlsZT0ic3Ryb2tlOiMxODE4MTg7c3Ryb2tlLXdpZHRoOjEuMDsiIHgxPSI3MTguNSIgeDI9IjEwNTAuNSIgeTE9IjM5NS4xOTUzIiB5Mj0iMzk1LjE5NTMiLz48dGV4dCBmaWxsPSIjMDAwMDAwIiBmb250LWZhbWlseT0ic2Fucy1zZXJpZiIgZm9udC1zaXplPSIxMyIgbGVuZ3RoQWRqdXN0PSJzcGFjaW5nIiB0ZXh0TGVuZ3RoPSIzMTQiIHg9IjcyNS41IiB5PSIzOTEuNTcwMyI+Q3JlYXRlIGpvdXJuYWwgZW50cnkgZm9yIHJlZ2lzdHJhdGlvbiBmZWUgI1JlZDwvdGV4dD48cG9seWdvbiBmaWxsPSIjMTgxODE4IiBwb2ludHM9IjM1Mi41LDQxOS4xMDk0LDM0Mi41LDQyMy4xMDk0LDM1Mi41LDQyNy4xMDk0LDM0OC41LDQyMy4xMDk0IiBzdHlsZT0ic3Ryb2tlOiMxODE4MTg7c3Ryb2tlLXdpZHRoOjEuMDsiLz48bGluZSBzdHlsZT0ic3Ryb2tlOiMxODE4MTg7c3Ryb2tlLXdpZHRoOjEuMDsiIHgxPSIzNDYuNSIgeDI9IjcxNy41IiB5MT0iNDIzLjEwOTQiIHkyPSI0MjMuMTA5NCIvPjx0ZXh0IGZpbGw9IiMwMDAwMDAiIGZvbnQtZmFtaWx5PSJzYW5zLXNlcmlmIiBmb250LXNpemU9IjEzIiBsZW5ndGhBZGp1c3Q9InNwYWNpbmciIHRleHRMZW5ndGg9IjIyMiIgeD0iMzU4LjUiIHk9IjQxOS40ODQ0Ij5Ob3RpZnkgb2YgcGF5bWVudCBjb21wbGV0aW9uICNSZWQ8L3RleHQ+PGxpbmUgc3R5bGU9InN0cm9rZTojMTgxODE4O3N0cm9rZS13aWR0aDoxLjA7IiB4MT0iMzQxLjUiIHgyPSIzODMuNSIgeTE9IjQ1MS4wMjM0IiB5Mj0iNDUxLjAyMzQiLz48bGluZSBzdHlsZT0ic3Ryb2tlOiMxODE4MTg7c3Ryb2tlLXdpZHRoOjEuMDsiIHgxPSIzODMuNSIgeDI9IjM4My41IiB5MT0iNDUxLjAyMzQiIHkyPSI0NjQuMDIzNCIvPjxsaW5lIHN0eWxlPSJzdHJva2U6IzE4MTgxODtzdHJva2Utd2lkdGg6MS4wOyIgeDE9IjM0Mi41IiB4Mj0iMzgzLjUiIHkxPSI0NjQuMDIzNCIgeTI9IjQ2NC4wMjM0Ii8+PHBvbHlnb24gZmlsbD0iIzE4MTgxOCIgcG9pbnRzPSIzNTIuNSw0NjAuMDIzNCwzNDIuNSw0NjQuMDIzNCwzNTIuNSw0NjguMDIzNCwzNDguNSw0NjQuMDIzNCIgc3R5bGU9InN0cm9rZTojMTgxODE4O3N0cm9rZS13aWR0aDoxLjA7Ii8+PHRleHQgZmlsbD0iIzAwMDAwMCIgZm9udC1mYW1pbHk9InNhbnMtc2VyaWYiIGZvbnQtc2l6ZT0iMTMiIGxlbmd0aEFkanVzdD0ic3BhY2luZyIgdGV4dExlbmd0aD0iMTU3IiB4PSIzNDguNSIgeT0iNDQ3LjM5ODQiPk1hcmsgbWVtYmVyIGFzICJBY3RpdmUiPC90ZXh0Pjxwb2x5Z29uIGZpbGw9IiMxODE4MTgiIHBvaW50cz0iODQ5LjUsNDg3LjkzNzUsODU5LjUsNDkxLjkzNzUsODQ5LjUsNDk1LjkzNzUsODUzLjUsNDkxLjkzNzUiIHN0eWxlPSJzdHJva2U6IzE4MTgxODtzdHJva2Utd2lkdGg6MS4wOyIvPjxsaW5lIHN0eWxlPSJzdHJva2U6IzE4MTgxODtzdHJva2Utd2lkdGg6MS4wOyIgeDE9IjM0MS41IiB4Mj0iODU1LjUiIHkxPSI0OTEuOTM3NSIgeTI9IjQ5MS45Mzc1Ii8+PHRleHQgZmlsbD0iIzAwMDAwMCIgZm9udC1mYW1pbHk9InNhbnMtc2VyaWYiIGZvbnQtc2l6ZT0iMTMiIGxlbmd0aEFkanVzdD0ic3BhY2luZyIgdGV4dExlbmd0aD0iMTk0IiB4PSIzNDguNSIgeT0iNDg4LjMxMjUiPlNlbmQgU01TICsgZW1haWwgY29uZmlybWF0aW9uPC90ZXh0Pjxwb2x5Z29uIGZpbGw9IiMxODE4MTgiIHBvaW50cz0iNDAuNSw1MTUuODUxNiwzMC41LDUxOS44NTE2LDQwLjUsNTIzLjg1MTYsMzYuNSw1MTkuODUxNiIgc3R5bGU9InN0cm9rZTojMTgxODE4O3N0cm9rZS13aWR0aDoxLjA7Ii8+PGxpbmUgc3R5bGU9InN0cm9rZTojMTgxODE4O3N0cm9rZS13aWR0aDoxLjA7IiB4MT0iMzQuNSIgeDI9Ijg2MC41IiB5MT0iNTE5Ljg1MTYiIHkyPSI1MTkuODUxNiIvPjx0ZXh0IGZpbGw9IiMwMDAwMDAiIGZvbnQtZmFtaWx5PSJzYW5zLXNlcmlmIiBmb250LXNpemU9IjEzIiBsZW5ndGhBZGp1c3Q9InNwYWNpbmciIHRleHRMZW5ndGg9IjE0MSIgeD0iNDYuNSIgeT0iNTE2LjIyNjYiPkNvbmZpcm1hdGlvbiByZWNlaXZlZDwvdGV4dD48IS0tU1JDPVtWTEREUnZqMDRCdHBBcVJFOFFzWV9XNFZBYzRRSExNQjRuTXJMZXZaNkNZS1BIVmpCZXh1enZ0VDFJaWVLS3k4eXB4Y2xIYnh6ZWdXZkU1QzVYeHJzUTFqTTdUbUNoUGxiTmREQ2dvemlJbFl2WVR0Ql93VzlpZjZqOXZoN2I1eHMyc1ZJekpPcUszb0txTnNtWk5qMDFzS1BSS203b29IdGJCcFBjMnpXVVNoLWZiSzY2NDNGdzVJajlLX2hWV2RybHFNVkpJVU13eEhpemJ3NzVURXJTX2x1bko2NFhuR3p3NkFVenNuSmdwWVM3eURXZEVNdEl3dnROR1VzM2ttckI3cERqYXJ2OTZMb25SQ2J3LVhYcHJLNFZpWDVFeFdudEMxWlFjZHFBNUdmUllMem1TTEQtVzlNOC1KVUE1a21GYW13NmdLdFFPa1NIb2prUTAyVVRKYWhaQXZnQ0gyUGkwOEQyc0NmRUUtWFFFTWRoOHllR0RhZG51b3hPTmZyTnE0VHJjMkIwUHZEMlNPT2tmNUFtUnVGU1JuWHdLb1p0dm91OHJTR0E4cWtxdFUxejlhMHc3QVktOEhsZC1KVjR5dW4tQ0FzVUtrLVBCZzJ1U0Fkc2hCaWE2OTdMejV0cWZCQnNKZnl2aUxkNEhQTEJScmpxSG15dWtReDFKalBTanhBMm01eXh6Y2liZXFuVE5FcUNlX3VOX0NFRlhJU0lYdDZSU3Ntb1g3Nm1XSGxDYlBla3ROS2tKNFRkZDhIVFNrWms1YWY3TWV2RnFFUTkxTFl3MWtzR3ZmTlNVYTVITGF4WlVWUERRUUhBcHYxbTAwXS0tPjwvZz48L3N2Zz4=;" vertex="1" parent="1">
            <mxGeometry x="-400.44" y="-1150" width="911.05" height="470" as="geometry" />
          </mxCell>
        </UserObject>
        <UserObject label="" plantUmlData="{&#xa;  &quot;data&quot;: &quot;@startuml\ntitle Loan Request and Approval Workflow\n\nactor Member #LightBlue\nactor Guarantor #LightPink\nparticipant \&quot;Lending Engine\&quot; as LE #LightGreen\nparticipant \&quot;Member Management Service\&quot; as MMS #LightYellow\nparticipant \&quot;Notification Service\&quot; as NS #LightSkyBlue\nparticipant \&quot;Core Banking Engine\&quot; as CBE #LightGray\nparticipant \&quot;Wallet Service\&quot; as WS #LightCoral\n\n&#39;Member submits loan request\nMember -&gt; LE: Submit loan application #Blue\nLE -&gt; LE: Validate eligibility (e.g., savings, membership duration)\n\n&#39;Guarantor verification\nLE -&gt; MMS: Verify guarantor eligibility\nMMS -&gt; NS: Notify guarantor of loan guarantee request\nGuarantor -&gt; MMS: Approve/Reject loan guarantee\nMMS -&gt; LE: Update loan status based on guarantor action\nLE -&gt; LE: Finalize approval (if guarantor approves)\n\n&#39;Loan disbursement flow (critical flow)\nLE -&gt; WS: Disburse loan to wallet #Red\nWS -&gt; CBE: Create loan disbursement journal entry #Red\nWS -&gt; Member: Update wallet balance #Red\n\n&#39;Notification to member\nLE -&gt; NS: Notify member of loan approval and disbursement\nNS -&gt; Member: Notification received\n@enduml&quot;,&#xa;  &quot;format&quot;: &quot;svg&quot;&#xa;}" id="AoYrLWxrWw_sPU3_he-3-5">
          <mxCell style="shape=image;noLabel=1;verticalAlign=top;aspect=fixed;imageAspect=0;image=data:image/svg+xml,PD94bWwgdmVyc2lvbj0iMS4wIiBlbmNvZGluZz0idXMtYXNjaWkiIHN0YW5kYWxvbmU9Im5vIj8+PHN2ZyB4bWxucz0iaHR0cDovL3d3dy53My5vcmcvMjAwMC9zdmciIHhtbG5zOnhsaW5rPSJodHRwOi8vd3d3LnczLm9yZy8xOTk5L3hsaW5rIiBjb250ZW50U3R5bGVUeXBlPSJ0ZXh0L2NzcyIgaGVpZ2h0PSI1NzZweCIgcHJlc2VydmVBc3BlY3RSYXRpbz0ibm9uZSIgc3R5bGU9IndpZHRoOjE0OTFweDtoZWlnaHQ6NTc2cHg7YmFja2dyb3VuZDojRkZGRkZGOyIgdmVyc2lvbj0iMS4xIiB2aWV3Qm94PSIwIDAgMTQ5MSA1NzYiIHdpZHRoPSIxNDkxcHgiIHpvb21BbmRQYW49Im1hZ25pZnkiPjxkZWZzLz48Zz48dGV4dCBmaWxsPSIjMDAwMDAwIiBmb250LWZhbWlseT0ic2Fucy1zZXJpZiIgZm9udC1zaXplPSIxNCIgZm9udC13ZWlnaHQ9ImJvbGQiIGxlbmd0aEFkanVzdD0ic3BhY2luZyIgdGV4dExlbmd0aD0iMjM5IiB4PSI2MjUiIHk9IjI4LjIzNDQiPkxvYW4gUmVxdWVzdCBhbmQgQXBwcm92YWwgV29ya2Zsb3c8L3RleHQ+PGxpbmUgc3R5bGU9InN0cm9rZTojMTgxODE4O3N0cm9rZS13aWR0aDowLjU7c3Ryb2tlLWRhc2hhcnJheTo1LjAsNS4wOyIgeDE9IjI5IiB4Mj0iMjkiIHkxPSIxMTUuOTY4OCIgeTI9IjQ5Ni45Mzc1Ii8+PGxpbmUgc3R5bGU9InN0cm9rZTojMTgxODE4O3N0cm9rZS13aWR0aDowLjU7c3Ryb2tlLWRhc2hhcnJheTo1LjAsNS4wOyIgeDE9Ijk4IiB4Mj0iOTgiIHkxPSIxMTUuOTY4OCIgeTI9IjQ5Ni45Mzc1Ii8+PGxpbmUgc3R5bGU9InN0cm9rZTojMTgxODE4O3N0cm9rZS13aWR0aDowLjU7c3Ryb2tlLWRhc2hhcnJheTo1LjAsNS4wOyIgeDE9IjI0OC41IiB4Mj0iMjQ4LjUiIHkxPSIxMTUuOTY4OCIgeTI9IjQ5Ni45Mzc1Ii8+PGxpbmUgc3R5bGU9InN0cm9rZTojMTgxODE4O3N0cm9rZS13aWR0aDowLjU7c3Ryb2tlLWRhc2hhcnJheTo1LjAsNS4wOyIgeDE9IjYzOSIgeDI9IjYzOSIgeTE9IjExNS45Njg4IiB5Mj0iNDk2LjkzNzUiLz48bGluZSBzdHlsZT0ic3Ryb2tlOiMxODE4MTg7c3Ryb2tlLXdpZHRoOjAuNTtzdHJva2UtZGFzaGFycmF5OjUuMCw1LjA7IiB4MT0iOTQ5LjUiIHgyPSI5NDkuNSIgeTE9IjExNS45Njg4IiB5Mj0iNDk2LjkzNzUiLz48bGluZSBzdHlsZT0ic3Ryb2tlOiMxODE4MTg7c3Ryb2tlLXdpZHRoOjAuNTtzdHJva2UtZGFzaGFycmF5OjUuMCw1LjA7IiB4MT0iMTEwOS41IiB4Mj0iMTEwOS41IiB5MT0iMTE1Ljk2ODgiIHkyPSI0OTYuOTM3NSIvPjxsaW5lIHN0eWxlPSJzdHJva2U6IzE4MTgxODtzdHJva2Utd2lkdGg6MC41O3N0cm9rZS1kYXNoYXJyYXk6NS4wLDUuMDsiIHgxPSIxNDI5IiB4Mj0iMTQyOSIgeTE9IjExNS45Njg4IiB5Mj0iNDk2LjkzNzUiLz48dGV4dCBmaWxsPSIjMDAwMDAwIiBmb250LWZhbWlseT0ic2Fucy1zZXJpZiIgZm9udC1zaXplPSIxNCIgbGVuZ3RoQWRqdXN0PSJzcGFjaW5nIiB0ZXh0TGVuZ3RoPSI0MyIgeD0iNSIgeT0iMTE0LjIxODgiPk1lbWJlcjwvdGV4dD48ZWxsaXBzZSBjeD0iMjkuNSIgY3k9IjQ5LjQ4NDQiIGZpbGw9IiNBREQ4RTYiIHJ4PSI4IiByeT0iOCIgc3R5bGU9InN0cm9rZTojMTgxODE4O3N0cm9rZS13aWR0aDowLjU7Ii8+PHBhdGggZD0iTTI5LjUsNTcuNDg0NCBMMjkuNSw4NC40ODQ0IE0xNi41LDY1LjQ4NDQgTDQyLjUsNjUuNDg0NCBNMjkuNSw4NC40ODQ0IEwxNi41LDk5LjQ4NDQgTTI5LjUsODQuNDg0NCBMNDIuNSw5OS40ODQ0ICIgZmlsbD0ibm9uZSIgc3R5bGU9InN0cm9rZTojMTgxODE4O3N0cm9rZS13aWR0aDowLjU7Ii8+PHRleHQgZmlsbD0iIzAwMDAwMCIgZm9udC1mYW1pbHk9InNhbnMtc2VyaWYiIGZvbnQtc2l6ZT0iMTQiIGxlbmd0aEFkanVzdD0ic3BhY2luZyIgdGV4dExlbmd0aD0iNDMiIHg9IjUiIHk9IjUwOS4xNzE5Ij5NZW1iZXI8L3RleHQ+PGVsbGlwc2UgY3g9IjI5LjUiIGN5PSI1MTkuNDIxOSIgZmlsbD0iI0FERDhFNiIgcng9IjgiIHJ5PSI4IiBzdHlsZT0ic3Ryb2tlOiMxODE4MTg7c3Ryb2tlLXdpZHRoOjAuNTsiLz48cGF0aCBkPSJNMjkuNSw1MjcuNDIxOSBMMjkuNSw1NTQuNDIxOSBNMTYuNSw1MzUuNDIxOSBMNDIuNSw1MzUuNDIxOSBNMjkuNSw1NTQuNDIxOSBMMTYuNSw1NjkuNDIxOSBNMjkuNSw1NTQuNDIxOSBMNDIuNSw1NjkuNDIxOSAiIGZpbGw9Im5vbmUiIHN0eWxlPSJzdHJva2U6IzE4MTgxODtzdHJva2Utd2lkdGg6MC41OyIvPjx0ZXh0IGZpbGw9IiMwMDAwMDAiIGZvbnQtZmFtaWx5PSJzYW5zLXNlcmlmIiBmb250LXNpemU9IjE0IiBsZW5ndGhBZGp1c3Q9InNwYWNpbmciIHRleHRMZW5ndGg9IjYzIiB4PSI2NCIgeT0iMTE0LjIxODgiPkd1YXJhbnRvcjwvdGV4dD48ZWxsaXBzZSBjeD0iOTguNSIgY3k9IjQ5LjQ4NDQiIGZpbGw9IiNGRkI2QzEiIHJ4PSI4IiByeT0iOCIgc3R5bGU9InN0cm9rZTojMTgxODE4O3N0cm9rZS13aWR0aDowLjU7Ii8+PHBhdGggZD0iTTk4LjUsNTcuNDg0NCBMOTguNSw4NC40ODQ0IE04NS41LDY1LjQ4NDQgTDExMS41LDY1LjQ4NDQgTTk4LjUsODQuNDg0NCBMODUuNSw5OS40ODQ0IE05OC41LDg0LjQ4NDQgTDExMS41LDk5LjQ4NDQgIiBmaWxsPSJub25lIiBzdHlsZT0ic3Ryb2tlOiMxODE4MTg7c3Ryb2tlLXdpZHRoOjAuNTsiLz48dGV4dCBmaWxsPSIjMDAwMDAwIiBmb250LWZhbWlseT0ic2Fucy1zZXJpZiIgZm9udC1zaXplPSIxNCIgbGVuZ3RoQWRqdXN0PSJzcGFjaW5nIiB0ZXh0TGVuZ3RoPSI2MyIgeD0iNjQiIHk9IjUwOS4xNzE5Ij5HdWFyYW50b3I8L3RleHQ+PGVsbGlwc2UgY3g9Ijk4LjUiIGN5PSI1MTkuNDIxOSIgZmlsbD0iI0ZGQjZDMSIgcng9IjgiIHJ5PSI4IiBzdHlsZT0ic3Ryb2tlOiMxODE4MTg7c3Ryb2tlLXdpZHRoOjAuNTsiLz48cGF0aCBkPSJNOTguNSw1MjcuNDIxOSBMOTguNSw1NTQuNDIxOSBNODUuNSw1MzUuNDIxOSBMMTExLjUsNTM1LjQyMTkgTTk4LjUsNTU0LjQyMTkgTDg1LjUsNTY5LjQyMTkgTTk4LjUsNTU0LjQyMTkgTDExMS41LDU2OS40MjE5ICIgZmlsbD0ibm9uZSIgc3R5bGU9InN0cm9rZTojMTgxODE4O3N0cm9rZS13aWR0aDowLjU7Ii8+PHJlY3QgZmlsbD0iIzkwRUU5MCIgaGVpZ2h0PSIyOC45ODQ0IiByeD0iMi41IiByeT0iMi41IiBzdHlsZT0ic3Ryb2tlOiMxODE4MTg7c3Ryb2tlLXdpZHRoOjAuNTsiIHdpZHRoPSIxMTIiIHg9IjE5Mi41IiB5PSI4NS45ODQ0Ii8+PHRleHQgZmlsbD0iIzAwMDAwMCIgZm9udC1mYW1pbHk9InNhbnMtc2VyaWYiIGZvbnQtc2l6ZT0iMTQiIGxlbmd0aEFkanVzdD0ic3BhY2luZyIgdGV4dExlbmd0aD0iOTgiIHg9IjE5OS41IiB5PSIxMDYuMjE4OCI+TGVuZGluZyBFbmdpbmU8L3RleHQ+PHJlY3QgZmlsbD0iIzkwRUU5MCIgaGVpZ2h0PSIyOC45ODQ0IiByeD0iMi41IiByeT0iMi41IiBzdHlsZT0ic3Ryb2tlOiMxODE4MTg7c3Ryb2tlLXdpZHRoOjAuNTsiIHdpZHRoPSIxMTIiIHg9IjE5Mi41IiB5PSI0OTUuOTM3NSIvPjx0ZXh0IGZpbGw9IiMwMDAwMDAiIGZvbnQtZmFtaWx5PSJzYW5zLXNlcmlmIiBmb250LXNpemU9IjE0IiBsZW5ndGhBZGp1c3Q9InNwYWNpbmciIHRleHRMZW5ndGg9Ijk4IiB4PSIxOTkuNSIgeT0iNTE2LjE3MTkiPkxlbmRpbmcgRW5naW5lPC90ZXh0PjxyZWN0IGZpbGw9IiNGRkZGRTAiIGhlaWdodD0iMjguOTg0NCIgcng9IjIuNSIgcnk9IjIuNSIgc3R5bGU9InN0cm9rZTojMTgxODE4O3N0cm9rZS13aWR0aDowLjU7IiB3aWR0aD0iMTkxIiB4PSI1NDQiIHk9Ijg1Ljk4NDQiLz48dGV4dCBmaWxsPSIjMDAwMDAwIiBmb250LWZhbWlseT0ic2Fucy1zZXJpZiIgZm9udC1zaXplPSIxNCIgbGVuZ3RoQWRqdXN0PSJzcGFjaW5nIiB0ZXh0TGVuZ3RoPSIxNzciIHg9IjU1MSIgeT0iMTA2LjIxODgiPk1lbWJlciBNYW5hZ2VtZW50IFNlcnZpY2U8L3RleHQ+PHJlY3QgZmlsbD0iI0ZGRkZFMCIgaGVpZ2h0PSIyOC45ODQ0IiByeD0iMi41IiByeT0iMi41IiBzdHlsZT0ic3Ryb2tlOiMxODE4MTg7c3Ryb2tlLXdpZHRoOjAuNTsiIHdpZHRoPSIxOTEiIHg9IjU0NCIgeT0iNDk1LjkzNzUiLz48dGV4dCBmaWxsPSIjMDAwMDAwIiBmb250LWZhbWlseT0ic2Fucy1zZXJpZiIgZm9udC1zaXplPSIxNCIgbGVuZ3RoQWRqdXN0PSJzcGFjaW5nIiB0ZXh0TGVuZ3RoPSIxNzciIHg9IjU1MSIgeT0iNTE2LjE3MTkiPk1lbWJlciBNYW5hZ2VtZW50IFNlcnZpY2U8L3RleHQ+PHJlY3QgZmlsbD0iIzg3Q0VGQSIgaGVpZ2h0PSIyOC45ODQ0IiByeD0iMi41IiByeT0iMi41IiBzdHlsZT0ic3Ryb2tlOiMxODE4MTg7c3Ryb2tlLXdpZHRoOjAuNTsiIHdpZHRoPSIxNTQiIHg9Ijg3Mi41IiB5PSI4NS45ODQ0Ii8+PHRleHQgZmlsbD0iIzAwMDAwMCIgZm9udC1mYW1pbHk9InNhbnMtc2VyaWYiIGZvbnQtc2l6ZT0iMTQiIGxlbmd0aEFkanVzdD0ic3BhY2luZyIgdGV4dExlbmd0aD0iMTQwIiB4PSI4NzkuNSIgeT0iMTA2LjIxODgiPk5vdGlmaWNhdGlvbiBTZXJ2aWNlPC90ZXh0PjxyZWN0IGZpbGw9IiM4N0NFRkEiIGhlaWdodD0iMjguOTg0NCIgcng9IjIuNSIgcnk9IjIuNSIgc3R5bGU9InN0cm9rZTojMTgxODE4O3N0cm9rZS13aWR0aDowLjU7IiB3aWR0aD0iMTU0IiB4PSI4NzIuNSIgeT0iNDk1LjkzNzUiLz48dGV4dCBmaWxsPSIjMDAwMDAwIiBmb250LWZhbWlseT0ic2Fucy1zZXJpZiIgZm9udC1zaXplPSIxNCIgbGVuZ3RoQWRqdXN0PSJzcGFjaW5nIiB0ZXh0TGVuZ3RoPSIxNDAiIHg9Ijg3OS41IiB5PSI1MTYuMTcxOSI+Tm90aWZpY2F0aW9uIFNlcnZpY2U8L3RleHQ+PHJlY3QgZmlsbD0iI0QzRDNEMyIgaGVpZ2h0PSIyOC45ODQ0IiByeD0iMi41IiByeT0iMi41IiBzdHlsZT0ic3Ryb2tlOiMxODE4MTg7c3Ryb2tlLXdpZHRoOjAuNTsiIHdpZHRoPSIxNDciIHg9IjEwMzYuNSIgeT0iODUuOTg0NCIvPjx0ZXh0IGZpbGw9IiMwMDAwMDAiIGZvbnQtZmFtaWx5PSJzYW5zLXNlcmlmIiBmb250LXNpemU9IjE0IiBsZW5ndGhBZGp1c3Q9InNwYWNpbmciIHRleHRMZW5ndGg9IjEzMyIgeD0iMTA0My41IiB5PSIxMDYuMjE4OCI+Q29yZSBCYW5raW5nIEVuZ2luZTwvdGV4dD48cmVjdCBmaWxsPSIjRDNEM0QzIiBoZWlnaHQ9IjI4Ljk4NDQiIHJ4PSIyLjUiIHJ5PSIyLjUiIHN0eWxlPSJzdHJva2U6IzE4MTgxODtzdHJva2Utd2lkdGg6MC41OyIgd2lkdGg9IjE0NyIgeD0iMTAzNi41IiB5PSI0OTUuOTM3NSIvPjx0ZXh0IGZpbGw9IiMwMDAwMDAiIGZvbnQtZmFtaWx5PSJzYW5zLXNlcmlmIiBmb250LXNpemU9IjE0IiBsZW5ndGhBZGp1c3Q9InNwYWNpbmciIHRleHRMZW5ndGg9IjEzMyIgeD0iMTA0My41IiB5PSI1MTYuMTcxOSI+Q29yZSBCYW5raW5nIEVuZ2luZTwvdGV4dD48cmVjdCBmaWxsPSIjRjA4MDgwIiBoZWlnaHQ9IjI4Ljk4NDQiIHJ4PSIyLjUiIHJ5PSIyLjUiIHN0eWxlPSJzdHJva2U6IzE4MTgxODtzdHJva2Utd2lkdGg6MC41OyIgd2lkdGg9IjExMiIgeD0iMTM3MyIgeT0iODUuOTg0NCIvPjx0ZXh0IGZpbGw9IiMwMDAwMDAiIGZvbnQtZmFtaWx5PSJzYW5zLXNlcmlmIiBmb250LXNpemU9IjE0IiBsZW5ndGhBZGp1c3Q9InNwYWNpbmciIHRleHRMZW5ndGg9Ijk4IiB4PSIxMzgwIiB5PSIxMDYuMjE4OCI+V2FsbGV0IFNlcnZpY2U8L3RleHQ+PHJlY3QgZmlsbD0iI0YwODA4MCIgaGVpZ2h0PSIyOC45ODQ0IiByeD0iMi41IiByeT0iMi41IiBzdHlsZT0ic3Ryb2tlOiMxODE4MTg7c3Ryb2tlLXdpZHRoOjAuNTsiIHdpZHRoPSIxMTIiIHg9IjEzNzMiIHk9IjQ5NS45Mzc1Ii8+PHRleHQgZmlsbD0iIzAwMDAwMCIgZm9udC1mYW1pbHk9InNhbnMtc2VyaWYiIGZvbnQtc2l6ZT0iMTQiIGxlbmd0aEFkanVzdD0ic3BhY2luZyIgdGV4dExlbmd0aD0iOTgiIHg9IjEzODAiIHk9IjUxNi4xNzE5Ij5XYWxsZXQgU2VydmljZTwvdGV4dD48cG9seWdvbiBmaWxsPSIjMTgxODE4IiBwb2ludHM9IjIzNi41LDE0MS44ODI4LDI0Ni41LDE0NS44ODI4LDIzNi41LDE0OS44ODI4LDI0MC41LDE0NS44ODI4IiBzdHlsZT0ic3Ryb2tlOiMxODE4MTg7c3Ryb2tlLXdpZHRoOjEuMDsiLz48bGluZSBzdHlsZT0ic3Ryb2tlOiMxODE4MTg7c3Ryb2tlLXdpZHRoOjEuMDsiIHgxPSIyOS41IiB4Mj0iMjQyLjUiIHkxPSIxNDUuODgyOCIgeTI9IjE0NS44ODI4Ii8+PHRleHQgZmlsbD0iIzAwMDAwMCIgZm9udC1mYW1pbHk9InNhbnMtc2VyaWYiIGZvbnQtc2l6ZT0iMTMiIGxlbmd0aEFkanVzdD0ic3BhY2luZyIgdGV4dExlbmd0aD0iMTk1IiB4PSIzNi41IiB5PSIxNDIuMjU3OCI+U3VibWl0IGxvYW4gYXBwbGljYXRpb24gI0JsdWU8L3RleHQ+PGxpbmUgc3R5bGU9InN0cm9rZTojMTgxODE4O3N0cm9rZS13aWR0aDoxLjA7IiB4MT0iMjQ4LjUiIHgyPSIyOTAuNSIgeTE9IjE3My43OTY5IiB5Mj0iMTczLjc5NjkiLz48bGluZSBzdHlsZT0ic3Ryb2tlOiMxODE4MTg7c3Ryb2tlLXdpZHRoOjEuMDsiIHgxPSIyOTAuNSIgeDI9IjI5MC41IiB5MT0iMTczLjc5NjkiIHkyPSIxODYuNzk2OSIvPjxsaW5lIHN0eWxlPSJzdHJva2U6IzE4MTgxODtzdHJva2Utd2lkdGg6MS4wOyIgeDE9IjI0OS41IiB4Mj0iMjkwLjUiIHkxPSIxODYuNzk2OSIgeTI9IjE4Ni43OTY5Ii8+PHBvbHlnb24gZmlsbD0iIzE4MTgxOCIgcG9pbnRzPSIyNTkuNSwxODIuNzk2OSwyNDkuNSwxODYuNzk2OSwyNTkuNSwxOTAuNzk2OSwyNTUuNSwxODYuNzk2OSIgc3R5bGU9InN0cm9rZTojMTgxODE4O3N0cm9rZS13aWR0aDoxLjA7Ii8+PHRleHQgZmlsbD0iIzAwMDAwMCIgZm9udC1mYW1pbHk9InNhbnMtc2VyaWYiIGZvbnQtc2l6ZT0iMTMiIGxlbmd0aEFkanVzdD0ic3BhY2luZyIgdGV4dExlbmd0aD0iMzc3IiB4PSIyNTUuNSIgeT0iMTcwLjE3MTkiPlZhbGlkYXRlIGVsaWdpYmlsaXR5IChlLmcuLCBzYXZpbmdzLCBtZW1iZXJzaGlwIGR1cmF0aW9uKTwvdGV4dD48cG9seWdvbiBmaWxsPSIjMTgxODE4IiBwb2ludHM9IjYyNy41LDIxMC43MTA5LDYzNy41LDIxNC43MTA5LDYyNy41LDIxOC43MTA5LDYzMS41LDIxNC43MTA5IiBzdHlsZT0ic3Ryb2tlOiMxODE4MTg7c3Ryb2tlLXdpZHRoOjEuMDsiLz48bGluZSBzdHlsZT0ic3Ryb2tlOiMxODE4MTg7c3Ryb2tlLXdpZHRoOjEuMDsiIHgxPSIyNDguNSIgeDI9IjYzMy41IiB5MT0iMjE0LjcxMDkiIHkyPSIyMTQuNzEwOSIvPjx0ZXh0IGZpbGw9IiMwMDAwMDAiIGZvbnQtZmFtaWx5PSJzYW5zLXNlcmlmIiBmb250LXNpemU9IjEzIiBsZW5ndGhBZGp1c3Q9InNwYWNpbmciIHRleHRMZW5ndGg9IjE4NiIgeD0iMjU1LjUiIHk9IjIxMS4wODU5Ij5WZXJpZnkgZ3VhcmFudG9yIGVsaWdpYmlsaXR5PC90ZXh0Pjxwb2x5Z29uIGZpbGw9IiMxODE4MTgiIHBvaW50cz0iOTM3LjUsMjM4LjYyNSw5NDcuNSwyNDIuNjI1LDkzNy41LDI0Ni42MjUsOTQxLjUsMjQyLjYyNSIgc3R5bGU9InN0cm9rZTojMTgxODE4O3N0cm9rZS13aWR0aDoxLjA7Ii8+PGxpbmUgc3R5bGU9InN0cm9rZTojMTgxODE4O3N0cm9rZS13aWR0aDoxLjA7IiB4MT0iNjM5LjUiIHgyPSI5NDMuNSIgeTE9IjI0Mi42MjUiIHkyPSIyNDIuNjI1Ii8+PHRleHQgZmlsbD0iIzAwMDAwMCIgZm9udC1mYW1pbHk9InNhbnMtc2VyaWYiIGZvbnQtc2l6ZT0iMTMiIGxlbmd0aEFkanVzdD0ic3BhY2luZyIgdGV4dExlbmd0aD0iMjg2IiB4PSI2NDYuNSIgeT0iMjM5Ij5Ob3RpZnkgZ3VhcmFudG9yIG9mIGxvYW4gZ3VhcmFudGVlIHJlcXVlc3Q8L3RleHQ+PHBvbHlnb24gZmlsbD0iIzE4MTgxOCIgcG9pbnRzPSI2MjcuNSwyNjYuNTM5MSw2MzcuNSwyNzAuNTM5MSw2MjcuNSwyNzQuNTM5MSw2MzEuNSwyNzAuNTM5MSIgc3R5bGU9InN0cm9rZTojMTgxODE4O3N0cm9rZS13aWR0aDoxLjA7Ii8+PGxpbmUgc3R5bGU9InN0cm9rZTojMTgxODE4O3N0cm9rZS13aWR0aDoxLjA7IiB4MT0iOTguNSIgeDI9IjYzMy41IiB5MT0iMjcwLjUzOTEiIHkyPSIyNzAuNTM5MSIvPjx0ZXh0IGZpbGw9IiMwMDAwMDAiIGZvbnQtZmFtaWx5PSJzYW5zLXNlcmlmIiBmb250LXNpemU9IjEzIiBsZW5ndGhBZGp1c3Q9InNwYWNpbmciIHRleHRMZW5ndGg9IjIwMCIgeD0iMTA1LjUiIHk9IjI2Ni45MTQxIj5BcHByb3ZlL1JlamVjdCBsb2FuIGd1YXJhbnRlZTwvdGV4dD48cG9seWdvbiBmaWxsPSIjMTgxODE4IiBwb2ludHM9IjI1OS41LDI5NC40NTMxLDI0OS41LDI5OC40NTMxLDI1OS41LDMwMi40NTMxLDI1NS41LDI5OC40NTMxIiBzdHlsZT0ic3Ryb2tlOiMxODE4MTg7c3Ryb2tlLXdpZHRoOjEuMDsiLz48bGluZSBzdHlsZT0ic3Ryb2tlOiMxODE4MTg7c3Ryb2tlLXdpZHRoOjEuMDsiIHgxPSIyNTMuNSIgeDI9IjYzOC41IiB5MT0iMjk4LjQ1MzEiIHkyPSIyOTguNDUzMSIvPjx0ZXh0IGZpbGw9IiMwMDAwMDAiIGZvbnQtZmFtaWx5PSJzYW5zLXNlcmlmIiBmb250LXNpemU9IjEzIiBsZW5ndGhBZGp1c3Q9InNwYWNpbmciIHRleHRMZW5ndGg9IjMwMSIgeD0iMjY1LjUiIHk9IjI5NC44MjgxIj5VcGRhdGUgbG9hbiBzdGF0dXMgYmFzZWQgb24gZ3VhcmFudG9yIGFjdGlvbjwvdGV4dD48bGluZSBzdHlsZT0ic3Ryb2tlOiMxODE4MTg7c3Ryb2tlLXdpZHRoOjEuMDsiIHgxPSIyNDguNSIgeDI9IjI5MC41IiB5MT0iMzI2LjM2NzIiIHkyPSIzMjYuMzY3MiIvPjxsaW5lIHN0eWxlPSJzdHJva2U6IzE4MTgxODtzdHJva2Utd2lkdGg6MS4wOyIgeDE9IjI5MC41IiB4Mj0iMjkwLjUiIHkxPSIzMjYuMzY3MiIgeTI9IjMzOS4zNjcyIi8+PGxpbmUgc3R5bGU9InN0cm9rZTojMTgxODE4O3N0cm9rZS13aWR0aDoxLjA7IiB4MT0iMjQ5LjUiIHgyPSIyOTAuNSIgeTE9IjMzOS4zNjcyIiB5Mj0iMzM5LjM2NzIiLz48cG9seWdvbiBmaWxsPSIjMTgxODE4IiBwb2ludHM9IjI1OS41LDMzNS4zNjcyLDI0OS41LDMzOS4zNjcyLDI1OS41LDM0My4zNjcyLDI1NS41LDMzOS4zNjcyIiBzdHlsZT0ic3Ryb2tlOiMxODE4MTg7c3Ryb2tlLXdpZHRoOjEuMDsiLz48dGV4dCBmaWxsPSIjMDAwMDAwIiBmb250LWZhbWlseT0ic2Fucy1zZXJpZiIgZm9udC1zaXplPSIxMyIgbGVuZ3RoQWRqdXN0PSJzcGFjaW5nIiB0ZXh0TGVuZ3RoPSIyNzgiIHg9IjI1NS41IiB5PSIzMjIuNzQyMiI+RmluYWxpemUgYXBwcm92YWwgKGlmIGd1YXJhbnRvciBhcHByb3Zlcyk8L3RleHQ+PHBvbHlnb24gZmlsbD0iIzE4MTgxOCIgcG9pbnRzPSIxNDE3LDM2My4yODEzLDE0MjcsMzY3LjI4MTMsMTQxNywzNzEuMjgxMywxNDIxLDM2Ny4yODEzIiBzdHlsZT0ic3Ryb2tlOiMxODE4MTg7c3Ryb2tlLXdpZHRoOjEuMDsiLz48bGluZSBzdHlsZT0ic3Ryb2tlOiMxODE4MTg7c3Ryb2tlLXdpZHRoOjEuMDsiIHgxPSIyNDguNSIgeDI9IjE0MjMiIHkxPSIzNjcuMjgxMyIgeTI9IjM2Ny4yODEzIi8+PHRleHQgZmlsbD0iIzAwMDAwMCIgZm9udC1mYW1pbHk9InNhbnMtc2VyaWYiIGZvbnQtc2l6ZT0iMTMiIGxlbmd0aEFkanVzdD0ic3BhY2luZyIgdGV4dExlbmd0aD0iMTkwIiB4PSIyNTUuNSIgeT0iMzYzLjY1NjMiPkRpc2J1cnNlIGxvYW4gdG8gd2FsbGV0ICNSZWQ8L3RleHQ+PHBvbHlnb24gZmlsbD0iIzE4MTgxOCIgcG9pbnRzPSIxMTIxLDM5MS4xOTUzLDExMTEsMzk1LjE5NTMsMTEyMSwzOTkuMTk1MywxMTE3LDM5NS4xOTUzIiBzdHlsZT0ic3Ryb2tlOiMxODE4MTg7c3Ryb2tlLXdpZHRoOjEuMDsiLz48bGluZSBzdHlsZT0ic3Ryb2tlOiMxODE4MTg7c3Ryb2tlLXdpZHRoOjEuMDsiIHgxPSIxMTE1IiB4Mj0iMTQyOCIgeTE9IjM5NS4xOTUzIiB5Mj0iMzk1LjE5NTMiLz48dGV4dCBmaWxsPSIjMDAwMDAwIiBmb250LWZhbWlseT0ic2Fucy1zZXJpZiIgZm9udC1zaXplPSIxMyIgbGVuZ3RoQWRqdXN0PSJzcGFjaW5nIiB0ZXh0TGVuZ3RoPSIyOTUiIHg9IjExMjciIHk9IjM5MS41NzAzIj5DcmVhdGUgbG9hbiBkaXNidXJzZW1lbnQgam91cm5hbCBlbnRyeSAjUmVkPC90ZXh0Pjxwb2x5Z29uIGZpbGw9IiMxODE4MTgiIHBvaW50cz0iNDAuNSw0MTkuMTA5NCwzMC41LDQyMy4xMDk0LDQwLjUsNDI3LjEwOTQsMzYuNSw0MjMuMTA5NCIgc3R5bGU9InN0cm9rZTojMTgxODE4O3N0cm9rZS13aWR0aDoxLjA7Ii8+PGxpbmUgc3R5bGU9InN0cm9rZTojMTgxODE4O3N0cm9rZS13aWR0aDoxLjA7IiB4MT0iMzQuNSIgeDI9IjE0MjgiIHkxPSI0MjMuMTA5NCIgeTI9IjQyMy4xMDk0Ii8+PHRleHQgZmlsbD0iIzAwMDAwMCIgZm9udC1mYW1pbHk9InNhbnMtc2VyaWYiIGZvbnQtc2l6ZT0iMTMiIGxlbmd0aEFkanVzdD0ic3BhY2luZyIgdGV4dExlbmd0aD0iMTc3IiB4PSI0Ni41IiB5PSI0MTkuNDg0NCI+VXBkYXRlIHdhbGxldCBiYWxhbmNlICNSZWQ8L3RleHQ+PHBvbHlnb24gZmlsbD0iIzE4MTgxOCIgcG9pbnRzPSI5MzcuNSw0NDcuMDIzNCw5NDcuNSw0NTEuMDIzNCw5MzcuNSw0NTUuMDIzNCw5NDEuNSw0NTEuMDIzNCIgc3R5bGU9InN0cm9rZTojMTgxODE4O3N0cm9rZS13aWR0aDoxLjA7Ii8+PGxpbmUgc3R5bGU9InN0cm9rZTojMTgxODE4O3N0cm9rZS13aWR0aDoxLjA7IiB4MT0iMjQ4LjUiIHgyPSI5NDMuNSIgeTE9IjQ1MS4wMjM0IiB5Mj0iNDUxLjAyMzQiLz48dGV4dCBmaWxsPSIjMDAwMDAwIiBmb250LWZhbWlseT0ic2Fucy1zZXJpZiIgZm9udC1zaXplPSIxMyIgbGVuZ3RoQWRqdXN0PSJzcGFjaW5nIiB0ZXh0TGVuZ3RoPSIzMTgiIHg9IjI1NS41IiB5PSI0NDcuMzk4NCI+Tm90aWZ5IG1lbWJlciBvZiBsb2FuIGFwcHJvdmFsIGFuZCBkaXNidXJzZW1lbnQ8L3RleHQ+PHBvbHlnb24gZmlsbD0iIzE4MTgxOCIgcG9pbnRzPSI0MC41LDQ3NC45Mzc1LDMwLjUsNDc4LjkzNzUsNDAuNSw0ODIuOTM3NSwzNi41LDQ3OC45Mzc1IiBzdHlsZT0ic3Ryb2tlOiMxODE4MTg7c3Ryb2tlLXdpZHRoOjEuMDsiLz48bGluZSBzdHlsZT0ic3Ryb2tlOiMxODE4MTg7c3Ryb2tlLXdpZHRoOjEuMDsiIHgxPSIzNC41IiB4Mj0iOTQ4LjUiIHkxPSI0NzguOTM3NSIgeTI9IjQ3OC45Mzc1Ii8+PHRleHQgZmlsbD0iIzAwMDAwMCIgZm9udC1mYW1pbHk9InNhbnMtc2VyaWYiIGZvbnQtc2l6ZT0iMTMiIGxlbmd0aEFkanVzdD0ic3BhY2luZyIgdGV4dExlbmd0aD0iMTQwIiB4PSI0Ni41IiB5PSI0NzUuMzEyNSI+Tm90aWZpY2F0aW9uIHJlY2VpdmVkPC90ZXh0PjwhLS1TUkM9W05MRERSemltM0J0aExuM0RlSWRHalZTVTFZbmZycWlJMzBhc09xVlFQYm1zWWtIQWlXbGxycXpWU1VwVTdFZXpsaVQ3bmg2SjExa0QybFJxcVA1cldBZzY3c3JoVDh5STJjckVId2FfWFMzQVFHRFJFZlRhT0I3WHZpc2pQNFV2X2pnWEdITS1xakNsTFlWSGVkNVNTVWlWdTZQM2djUkxtOGpnTUQ0RGU4TkRJcVFfNlk4clhzVVhCSWZpdzRvLVQyM0pTdk1Pcy1xWEtfLUkzRlBjdDlyc1ZFR0E3TWlyZS1xa2hDRGZZRVBkakJLczEyaktmb3lzcndraEpucGNkMEFiZkJjdHVZQlktdzRLdVpRRk9obG9wQ3cyMzY2UjVCUjhSei0gLSAtcDJVdTEwWDJPNWpBb3lwQkE5UDdyVjZfSzc5REplMmFqbm1vUEJUMDRqd1ExeGttTUJsX1RqeEVDVk16ZXJSZzNpSjZ6cnZEelREek1KNmM3OXBkd2xsN2tlM0QyRG1lWTkyeVh3dXl4V095bklkWnlid2hYMkRPcnY1Qm9CZm1rWG5KLXpLa0kteVlxZ096TlNSOXVxMHd6MXI1YWdxTDhETTRzYl9YVFNmMGtxZEFuX0lGbWV2ZmJEVXlkNUFJRmVzSDFCRmxzUFJUaVFjTW1pZDN5bEFpRC1xZnVRVlR4YnZ1U3FfUHNub3ZKSHlmWkRPeEFhTUhSSmtaLU85cmVQNnh4Ri14eGVwdFhfdVJwRENRVWFVbmdicHRuOGJnZWVJS0RwRXhqa2hmcXJkVnZGRGZGZ3ViWjY5eTAtVnNYNnhjVlFpbFE2QWtBVndGbTAwXS0tPjwvZz48L3N2Zz4=;" vertex="1" parent="1">
            <mxGeometry x="-400.44" y="-500" width="1076.83" height="416" as="geometry" />
          </mxCell>
        </UserObject>
        <UserObject label="" plantUmlData="{&#xa;  &quot;data&quot;: &quot;@startuml\ntitle Automated Savings Workflow\n\nactor Member #LightBlue\nparticipant \&quot;Saving Engine\&quot; as SE #LightGreen\nparticipant \&quot;Wallet Service\&quot; as WS #LightCoral\nparticipant \&quot;Notification Service\&quot; as NS #LightSkyBlue\nparticipant \&quot;Core Banking Engine\&quot; as CBE #LightGray\n\n&#39;Member enables automated savings\nMember -&gt; SE: Enable automated savings #Blue\nSE -&gt; SE: Schedule monthly savings deduction\n\n&#39;Deduction and transaction flow (critical flow)\nSE -&gt; WS: Deduct savings amount from wallet #Red\nWS -&gt; CBE: Create savings transaction journal entry #Red\nWS -&gt; SE: Confirm deduction #Red\n\n&#39;Savings balance update\nSE -&gt; SE: Update member savings balance\nSE -&gt; NS: Notify member of successful savings deduction\nNS -&gt; Member: Notification received\n@enduml&quot;,&#xa;  &quot;format&quot;: &quot;svg&quot;&#xa;}" id="AoYrLWxrWw_sPU3_he-3-6">
          <mxCell style="shape=image;noLabel=1;verticalAlign=top;aspect=fixed;imageAspect=0;image=data:image/svg+xml,PD94bWwgdmVyc2lvbj0iMS4wIiBlbmNvZGluZz0idXMtYXNjaWkiIHN0YW5kYWxvbmU9Im5vIj8+PHN2ZyB4bWxucz0iaHR0cDovL3d3dy53My5vcmcvMjAwMC9zdmciIHhtbG5zOnhsaW5rPSJodHRwOi8vd3d3LnczLm9yZy8xOTk5L3hsaW5rIiBjb250ZW50U3R5bGVUeXBlPSJ0ZXh0L2NzcyIgaGVpZ2h0PSI0NjRweCIgcHJlc2VydmVBc3BlY3RSYXRpbz0ibm9uZSIgc3R5bGU9IndpZHRoOjk1MnB4O2hlaWdodDo0NjRweDtiYWNrZ3JvdW5kOiNGRkZGRkY7IiB2ZXJzaW9uPSIxLjEiIHZpZXdCb3g9IjAgMCA5NTIgNDY0IiB3aWR0aD0iOTUycHgiIHpvb21BbmRQYW49Im1hZ25pZnkiPjxkZWZzLz48Zz48dGV4dCBmaWxsPSIjMDAwMDAwIiBmb250LWZhbWlseT0ic2Fucy1zZXJpZiIgZm9udC1zaXplPSIxNCIgZm9udC13ZWlnaHQ9ImJvbGQiIGxlbmd0aEFkanVzdD0ic3BhY2luZyIgdGV4dExlbmd0aD0iMTg0IiB4PSIzODMiIHk9IjI4LjIzNDQiPkF1dG9tYXRlZCBTYXZpbmdzIFdvcmtmbG93PC90ZXh0PjxsaW5lIHN0eWxlPSJzdHJva2U6IzE4MTgxODtzdHJva2Utd2lkdGg6MC41O3N0cm9rZS1kYXNoYXJyYXk6NS4wLDUuMDsiIHgxPSIyOSIgeDI9IjI5IiB5MT0iMTE1Ljk2ODgiIHkyPSIzODUuMjgxMyIvPjxsaW5lIHN0eWxlPSJzdHJva2U6IzE4MTgxODtzdHJva2Utd2lkdGg6MC41O3N0cm9rZS1kYXNoYXJyYXk6NS4wLDUuMDsiIHgxPSIyNTgiIHgyPSIyNTgiIHkxPSIxMTUuOTY4OCIgeTI9IjM4NS4yODEzIi8+PGxpbmUgc3R5bGU9InN0cm9rZTojMTgxODE4O3N0cm9rZS13aWR0aDowLjU7c3Ryb2tlLWRhc2hhcnJheTo1LjAsNS4wOyIgeDE9IjUzOS41IiB4Mj0iNTM5LjUiIHkxPSIxMTUuOTY4OCIgeTI9IjM4NS4yODEzIi8+PGxpbmUgc3R5bGU9InN0cm9rZTojMTgxODE4O3N0cm9rZS13aWR0aDowLjU7c3Ryb2tlLWRhc2hhcnJheTo1LjAsNS4wOyIgeDE9IjY4Mi41IiB4Mj0iNjgyLjUiIHkxPSIxMTUuOTY4OCIgeTI9IjM4NS4yODEzIi8+PGxpbmUgc3R5bGU9InN0cm9rZTojMTgxODE4O3N0cm9rZS13aWR0aDowLjU7c3Ryb2tlLWRhc2hhcnJheTo1LjAsNS4wOyIgeDE9Ijg3MiIgeDI9Ijg3MiIgeTE9IjExNS45Njg4IiB5Mj0iMzg1LjI4MTMiLz48dGV4dCBmaWxsPSIjMDAwMDAwIiBmb250LWZhbWlseT0ic2Fucy1zZXJpZiIgZm9udC1zaXplPSIxNCIgbGVuZ3RoQWRqdXN0PSJzcGFjaW5nIiB0ZXh0TGVuZ3RoPSI0MyIgeD0iNSIgeT0iMTE0LjIxODgiPk1lbWJlcjwvdGV4dD48ZWxsaXBzZSBjeD0iMjkuNSIgY3k9IjQ5LjQ4NDQiIGZpbGw9IiNBREQ4RTYiIHJ4PSI4IiByeT0iOCIgc3R5bGU9InN0cm9rZTojMTgxODE4O3N0cm9rZS13aWR0aDowLjU7Ii8+PHBhdGggZD0iTTI5LjUsNTcuNDg0NCBMMjkuNSw4NC40ODQ0IE0xNi41LDY1LjQ4NDQgTDQyLjUsNjUuNDg0NCBNMjkuNSw4NC40ODQ0IEwxNi41LDk5LjQ4NDQgTTI5LjUsODQuNDg0NCBMNDIuNSw5OS40ODQ0ICIgZmlsbD0ibm9uZSIgc3R5bGU9InN0cm9rZTojMTgxODE4O3N0cm9rZS13aWR0aDowLjU7Ii8+PHRleHQgZmlsbD0iIzAwMDAwMCIgZm9udC1mYW1pbHk9InNhbnMtc2VyaWYiIGZvbnQtc2l6ZT0iMTQiIGxlbmd0aEFkanVzdD0ic3BhY2luZyIgdGV4dExlbmd0aD0iNDMiIHg9IjUiIHk9IjM5Ny41MTU2Ij5NZW1iZXI8L3RleHQ+PGVsbGlwc2UgY3g9IjI5LjUiIGN5PSI0MDcuNzY1NiIgZmlsbD0iI0FERDhFNiIgcng9IjgiIHJ5PSI4IiBzdHlsZT0ic3Ryb2tlOiMxODE4MTg7c3Ryb2tlLXdpZHRoOjAuNTsiLz48cGF0aCBkPSJNMjkuNSw0MTUuNzY1NiBMMjkuNSw0NDIuNzY1NiBNMTYuNSw0MjMuNzY1NiBMNDIuNSw0MjMuNzY1NiBNMjkuNSw0NDIuNzY1NiBMMTYuNSw0NTcuNzY1NiBNMjkuNSw0NDIuNzY1NiBMNDIuNSw0NTcuNzY1NiAiIGZpbGw9Im5vbmUiIHN0eWxlPSJzdHJva2U6IzE4MTgxODtzdHJva2Utd2lkdGg6MC41OyIvPjxyZWN0IGZpbGw9IiM5MEVFOTAiIGhlaWdodD0iMjguOTg0NCIgcng9IjIuNSIgcnk9IjIuNSIgc3R5bGU9InN0cm9rZTojMTgxODE4O3N0cm9rZS13aWR0aDowLjU7IiB3aWR0aD0iMTA1IiB4PSIyMDYiIHk9Ijg1Ljk4NDQiLz48dGV4dCBmaWxsPSIjMDAwMDAwIiBmb250LWZhbWlseT0ic2Fucy1zZXJpZiIgZm9udC1zaXplPSIxNCIgbGVuZ3RoQWRqdXN0PSJzcGFjaW5nIiB0ZXh0TGVuZ3RoPSI5MSIgeD0iMjEzIiB5PSIxMDYuMjE4OCI+U2F2aW5nIEVuZ2luZTwvdGV4dD48cmVjdCBmaWxsPSIjOTBFRTkwIiBoZWlnaHQ9IjI4Ljk4NDQiIHJ4PSIyLjUiIHJ5PSIyLjUiIHN0eWxlPSJzdHJva2U6IzE4MTgxODtzdHJva2Utd2lkdGg6MC41OyIgd2lkdGg9IjEwNSIgeD0iMjA2IiB5PSIzODQuMjgxMyIvPjx0ZXh0IGZpbGw9IiMwMDAwMDAiIGZvbnQtZmFtaWx5PSJzYW5zLXNlcmlmIiBmb250LXNpemU9IjE0IiBsZW5ndGhBZGp1c3Q9InNwYWNpbmciIHRleHRMZW5ndGg9IjkxIiB4PSIyMTMiIHk9IjQwNC41MTU2Ij5TYXZpbmcgRW5naW5lPC90ZXh0PjxyZWN0IGZpbGw9IiNGMDgwODAiIGhlaWdodD0iMjguOTg0NCIgcng9IjIuNSIgcnk9IjIuNSIgc3R5bGU9InN0cm9rZTojMTgxODE4O3N0cm9rZS13aWR0aDowLjU7IiB3aWR0aD0iMTEyIiB4PSI0ODMuNSIgeT0iODUuOTg0NCIvPjx0ZXh0IGZpbGw9IiMwMDAwMDAiIGZvbnQtZmFtaWx5PSJzYW5zLXNlcmlmIiBmb250LXNpemU9IjE0IiBsZW5ndGhBZGp1c3Q9InNwYWNpbmciIHRleHRMZW5ndGg9Ijk4IiB4PSI0OTAuNSIgeT0iMTA2LjIxODgiPldhbGxldCBTZXJ2aWNlPC90ZXh0PjxyZWN0IGZpbGw9IiNGMDgwODAiIGhlaWdodD0iMjguOTg0NCIgcng9IjIuNSIgcnk9IjIuNSIgc3R5bGU9InN0cm9rZTojMTgxODE4O3N0cm9rZS13aWR0aDowLjU7IiB3aWR0aD0iMTEyIiB4PSI0ODMuNSIgeT0iMzg0LjI4MTMiLz48dGV4dCBmaWxsPSIjMDAwMDAwIiBmb250LWZhbWlseT0ic2Fucy1zZXJpZiIgZm9udC1zaXplPSIxNCIgbGVuZ3RoQWRqdXN0PSJzcGFjaW5nIiB0ZXh0TGVuZ3RoPSI5OCIgeD0iNDkwLjUiIHk9IjQwNC41MTU2Ij5XYWxsZXQgU2VydmljZTwvdGV4dD48cmVjdCBmaWxsPSIjODdDRUZBIiBoZWlnaHQ9IjI4Ljk4NDQiIHJ4PSIyLjUiIHJ5PSIyLjUiIHN0eWxlPSJzdHJva2U6IzE4MTgxODtzdHJva2Utd2lkdGg6MC41OyIgd2lkdGg9IjE1NCIgeD0iNjA1LjUiIHk9Ijg1Ljk4NDQiLz48dGV4dCBmaWxsPSIjMDAwMDAwIiBmb250LWZhbWlseT0ic2Fucy1zZXJpZiIgZm9udC1zaXplPSIxNCIgbGVuZ3RoQWRqdXN0PSJzcGFjaW5nIiB0ZXh0TGVuZ3RoPSIxNDAiIHg9IjYxMi41IiB5PSIxMDYuMjE4OCI+Tm90aWZpY2F0aW9uIFNlcnZpY2U8L3RleHQ+PHJlY3QgZmlsbD0iIzg3Q0VGQSIgaGVpZ2h0PSIyOC45ODQ0IiByeD0iMi41IiByeT0iMi41IiBzdHlsZT0ic3Ryb2tlOiMxODE4MTg7c3Ryb2tlLXdpZHRoOjAuNTsiIHdpZHRoPSIxNTQiIHg9IjYwNS41IiB5PSIzODQuMjgxMyIvPjx0ZXh0IGZpbGw9IiMwMDAwMDAiIGZvbnQtZmFtaWx5PSJzYW5zLXNlcmlmIiBmb250LXNpemU9IjE0IiBsZW5ndGhBZGp1c3Q9InNwYWNpbmciIHRleHRMZW5ndGg9IjE0MCIgeD0iNjEyLjUiIHk9IjQwNC41MTU2Ij5Ob3RpZmljYXRpb24gU2VydmljZTwvdGV4dD48cmVjdCBmaWxsPSIjRDNEM0QzIiBoZWlnaHQ9IjI4Ljk4NDQiIHJ4PSIyLjUiIHJ5PSIyLjUiIHN0eWxlPSJzdHJva2U6IzE4MTgxODtzdHJva2Utd2lkdGg6MC41OyIgd2lkdGg9IjE0NyIgeD0iNzk5IiB5PSI4NS45ODQ0Ii8+PHRleHQgZmlsbD0iIzAwMDAwMCIgZm9udC1mYW1pbHk9InNhbnMtc2VyaWYiIGZvbnQtc2l6ZT0iMTQiIGxlbmd0aEFkanVzdD0ic3BhY2luZyIgdGV4dExlbmd0aD0iMTMzIiB4PSI4MDYiIHk9IjEwNi4yMTg4Ij5Db3JlIEJhbmtpbmcgRW5naW5lPC90ZXh0PjxyZWN0IGZpbGw9IiNEM0QzRDMiIGhlaWdodD0iMjguOTg0NCIgcng9IjIuNSIgcnk9IjIuNSIgc3R5bGU9InN0cm9rZTojMTgxODE4O3N0cm9rZS13aWR0aDowLjU7IiB3aWR0aD0iMTQ3IiB4PSI3OTkiIHk9IjM4NC4yODEzIi8+PHRleHQgZmlsbD0iIzAwMDAwMCIgZm9udC1mYW1pbHk9InNhbnMtc2VyaWYiIGZvbnQtc2l6ZT0iMTQiIGxlbmd0aEFkanVzdD0ic3BhY2luZyIgdGV4dExlbmd0aD0iMTMzIiB4PSI4MDYiIHk9IjQwNC41MTU2Ij5Db3JlIEJhbmtpbmcgRW5naW5lPC90ZXh0Pjxwb2x5Z29uIGZpbGw9IiMxODE4MTgiIHBvaW50cz0iMjQ2LjUsMTQxLjg4MjgsMjU2LjUsMTQ1Ljg4MjgsMjQ2LjUsMTQ5Ljg4MjgsMjUwLjUsMTQ1Ljg4MjgiIHN0eWxlPSJzdHJva2U6IzE4MTgxODtzdHJva2Utd2lkdGg6MS4wOyIvPjxsaW5lIHN0eWxlPSJzdHJva2U6IzE4MTgxODtzdHJva2Utd2lkdGg6MS4wOyIgeDE9IjI5LjUiIHgyPSIyNTIuNSIgeTE9IjE0NS44ODI4IiB5Mj0iMTQ1Ljg4MjgiLz48dGV4dCBmaWxsPSIjMDAwMDAwIiBmb250LWZhbWlseT0ic2Fucy1zZXJpZiIgZm9udC1zaXplPSIxMyIgbGVuZ3RoQWRqdXN0PSJzcGFjaW5nIiB0ZXh0TGVuZ3RoPSIyMDUiIHg9IjM2LjUiIHk9IjE0Mi4yNTc4Ij5FbmFibGUgYXV0b21hdGVkIHNhdmluZ3MgI0JsdWU8L3RleHQ+PGxpbmUgc3R5bGU9InN0cm9rZTojMTgxODE4O3N0cm9rZS13aWR0aDoxLjA7IiB4MT0iMjU4LjUiIHgyPSIzMDAuNSIgeTE9IjE3My43OTY5IiB5Mj0iMTczLjc5NjkiLz48bGluZSBzdHlsZT0ic3Ryb2tlOiMxODE4MTg7c3Ryb2tlLXdpZHRoOjEuMDsiIHgxPSIzMDAuNSIgeDI9IjMwMC41IiB5MT0iMTczLjc5NjkiIHkyPSIxODYuNzk2OSIvPjxsaW5lIHN0eWxlPSJzdHJva2U6IzE4MTgxODtzdHJva2Utd2lkdGg6MS4wOyIgeDE9IjI1OS41IiB4Mj0iMzAwLjUiIHkxPSIxODYuNzk2OSIgeTI9IjE4Ni43OTY5Ii8+PHBvbHlnb24gZmlsbD0iIzE4MTgxOCIgcG9pbnRzPSIyNjkuNSwxODIuNzk2OSwyNTkuNSwxODYuNzk2OSwyNjkuNSwxOTAuNzk2OSwyNjUuNSwxODYuNzk2OSIgc3R5bGU9InN0cm9rZTojMTgxODE4O3N0cm9rZS13aWR0aDoxLjA7Ii8+PHRleHQgZmlsbD0iIzAwMDAwMCIgZm9udC1mYW1pbHk9InNhbnMtc2VyaWYiIGZvbnQtc2l6ZT0iMTMiIGxlbmd0aEFkanVzdD0ic3BhY2luZyIgdGV4dExlbmd0aD0iMjMxIiB4PSIyNjUuNSIgeT0iMTcwLjE3MTkiPlNjaGVkdWxlIG1vbnRobHkgc2F2aW5ncyBkZWR1Y3Rpb248L3RleHQ+PHBvbHlnb24gZmlsbD0iIzE4MTgxOCIgcG9pbnRzPSI1MjcuNSwyMTAuNzEwOSw1MzcuNSwyMTQuNzEwOSw1MjcuNSwyMTguNzEwOSw1MzEuNSwyMTQuNzEwOSIgc3R5bGU9InN0cm9rZTojMTgxODE4O3N0cm9rZS13aWR0aDoxLjA7Ii8+PGxpbmUgc3R5bGU9InN0cm9rZTojMTgxODE4O3N0cm9rZS13aWR0aDoxLjA7IiB4MT0iMjU4LjUiIHgyPSI1MzMuNSIgeTE9IjIxNC43MTA5IiB5Mj0iMjE0LjcxMDkiLz48dGV4dCBmaWxsPSIjMDAwMDAwIiBmb250LWZhbWlseT0ic2Fucy1zZXJpZiIgZm9udC1zaXplPSIxMyIgbGVuZ3RoQWRqdXN0PSJzcGFjaW5nIiB0ZXh0TGVuZ3RoPSIyNTciIHg9IjI2NS41IiB5PSIyMTEuMDg1OSI+RGVkdWN0IHNhdmluZ3MgYW1vdW50IGZyb20gd2FsbGV0ICNSZWQ8L3RleHQ+PHBvbHlnb24gZmlsbD0iIzE4MTgxOCIgcG9pbnRzPSI4NjAuNSwyMzguNjI1LDg3MC41LDI0Mi42MjUsODYwLjUsMjQ2LjYyNSw4NjQuNSwyNDIuNjI1IiBzdHlsZT0ic3Ryb2tlOiMxODE4MTg7c3Ryb2tlLXdpZHRoOjEuMDsiLz48bGluZSBzdHlsZT0ic3Ryb2tlOiMxODE4MTg7c3Ryb2tlLXdpZHRoOjEuMDsiIHgxPSI1MzkuNSIgeDI9Ijg2Ni41IiB5MT0iMjQyLjYyNSIgeTI9IjI0Mi42MjUiLz48dGV4dCBmaWxsPSIjMDAwMDAwIiBmb250LWZhbWlseT0ic2Fucy1zZXJpZiIgZm9udC1zaXplPSIxMyIgbGVuZ3RoQWRqdXN0PSJzcGFjaW5nIiB0ZXh0TGVuZ3RoPSIzMDkiIHg9IjU0Ni41IiB5PSIyMzkiPkNyZWF0ZSBzYXZpbmdzIHRyYW5zYWN0aW9uIGpvdXJuYWwgZW50cnkgI1JlZDwvdGV4dD48cG9seWdvbiBmaWxsPSIjMTgxODE4IiBwb2ludHM9IjI2OS41LDI2Ni41MzkxLDI1OS41LDI3MC41MzkxLDI2OS41LDI3NC41MzkxLDI2NS41LDI3MC41MzkxIiBzdHlsZT0ic3Ryb2tlOiMxODE4MTg7c3Ryb2tlLXdpZHRoOjEuMDsiLz48bGluZSBzdHlsZT0ic3Ryb2tlOiMxODE4MTg7c3Ryb2tlLXdpZHRoOjEuMDsiIHgxPSIyNjMuNSIgeDI9IjUzOC41IiB5MT0iMjcwLjUzOTEiIHkyPSIyNzAuNTM5MSIvPjx0ZXh0IGZpbGw9IiMwMDAwMDAiIGZvbnQtZmFtaWx5PSJzYW5zLXNlcmlmIiBmb250LXNpemU9IjEzIiBsZW5ndGhBZGp1c3Q9InNwYWNpbmciIHRleHRMZW5ndGg9IjE1MCIgeD0iMjc1LjUiIHk9IjI2Ni45MTQxIj5Db25maXJtIGRlZHVjdGlvbiAjUmVkPC90ZXh0PjxsaW5lIHN0eWxlPSJzdHJva2U6IzE4MTgxODtzdHJva2Utd2lkdGg6MS4wOyIgeDE9IjI1OC41IiB4Mj0iMzAwLjUiIHkxPSIyOTguNDUzMSIgeTI9IjI5OC40NTMxIi8+PGxpbmUgc3R5bGU9InN0cm9rZTojMTgxODE4O3N0cm9rZS13aWR0aDoxLjA7IiB4MT0iMzAwLjUiIHgyPSIzMDAuNSIgeTE9IjI5OC40NTMxIiB5Mj0iMzExLjQ1MzEiLz48bGluZSBzdHlsZT0ic3Ryb2tlOiMxODE4MTg7c3Ryb2tlLXdpZHRoOjEuMDsiIHgxPSIyNTkuNSIgeDI9IjMwMC41IiB5MT0iMzExLjQ1MzEiIHkyPSIzMTEuNDUzMSIvPjxwb2x5Z29uIGZpbGw9IiMxODE4MTgiIHBvaW50cz0iMjY5LjUsMzA3LjQ1MzEsMjU5LjUsMzExLjQ1MzEsMjY5LjUsMzE1LjQ1MzEsMjY1LjUsMzExLjQ1MzEiIHN0eWxlPSJzdHJva2U6IzE4MTgxODtzdHJva2Utd2lkdGg6MS4wOyIvPjx0ZXh0IGZpbGw9IiMwMDAwMDAiIGZvbnQtZmFtaWx5PSJzYW5zLXNlcmlmIiBmb250LXNpemU9IjEzIiBsZW5ndGhBZGp1c3Q9InNwYWNpbmciIHRleHRMZW5ndGg9IjE5OCIgeD0iMjY1LjUiIHk9IjI5NC44MjgxIj5VcGRhdGUgbWVtYmVyIHNhdmluZ3MgYmFsYW5jZTwvdGV4dD48cG9seWdvbiBmaWxsPSIjMTgxODE4IiBwb2ludHM9IjY3MC41LDMzNS4zNjcyLDY4MC41LDMzOS4zNjcyLDY3MC41LDM0My4zNjcyLDY3NC41LDMzOS4zNjcyIiBzdHlsZT0ic3Ryb2tlOiMxODE4MTg7c3Ryb2tlLXdpZHRoOjEuMDsiLz48bGluZSBzdHlsZT0ic3Ryb2tlOiMxODE4MTg7c3Ryb2tlLXdpZHRoOjEuMDsiIHgxPSIyNTguNSIgeDI9IjY3Ni41IiB5MT0iMzM5LjM2NzIiIHkyPSIzMzkuMzY3MiIvPjx0ZXh0IGZpbGw9IiMwMDAwMDAiIGZvbnQtZmFtaWx5PSJzYW5zLXNlcmlmIiBmb250LXNpemU9IjEzIiBsZW5ndGhBZGp1c3Q9InNwYWNpbmciIHRleHRMZW5ndGg9IjMwNCIgeD0iMjY1LjUiIHk9IjMzNS43NDIyIj5Ob3RpZnkgbWVtYmVyIG9mIHN1Y2Nlc3NmdWwgc2F2aW5ncyBkZWR1Y3Rpb248L3RleHQ+PHBvbHlnb24gZmlsbD0iIzE4MTgxOCIgcG9pbnRzPSI0MC41LDM2My4yODEzLDMwLjUsMzY3LjI4MTMsNDAuNSwzNzEuMjgxMywzNi41LDM2Ny4yODEzIiBzdHlsZT0ic3Ryb2tlOiMxODE4MTg7c3Ryb2tlLXdpZHRoOjEuMDsiLz48bGluZSBzdHlsZT0ic3Ryb2tlOiMxODE4MTg7c3Ryb2tlLXdpZHRoOjEuMDsiIHgxPSIzNC41IiB4Mj0iNjgxLjUiIHkxPSIzNjcuMjgxMyIgeTI9IjM2Ny4yODEzIi8+PHRleHQgZmlsbD0iIzAwMDAwMCIgZm9udC1mYW1pbHk9InNhbnMtc2VyaWYiIGZvbnQtc2l6ZT0iMTMiIGxlbmd0aEFkanVzdD0ic3BhY2luZyIgdGV4dExlbmd0aD0iMTQwIiB4PSI0Ni41IiB5PSIzNjMuNjU2MyI+Tm90aWZpY2F0aW9uIHJlY2VpdmVkPC90ZXh0PjwhLS1TUkM9W1JQQkRKaUNtNDhKbFZlZUxGSEdFbDQwRklCSEtOMjA3OGZKcHJqY3FmZXZULVFUTHRmdkR4QUdEdkhQN3QtcEVaMXJLcTBJbENUV00wekxHdWJjUGxPVkFrY0VaeEtLOGJDNHctQUhzSG11TTdzZl8yNmlUSVBwRzFJTkwyS3MwWG9JM2hUYWhHbS0wN2lmalhqeVRhUGRKNU1mRDBLZm9Qb0tKTmZLUHRyWTdVZXVORGdYNklHcEFjZmNlNjROYmlSbHRuOUM4cmNZRVZ2bmpyYlRoczBjbnBEZDh1NHdKMXZwQXlBYUNhTzdkNXF3cnViNHpUdV8xT2wzMG1KRE9vV0ZMYVQ3TWNkM0d0R0pNXzVsc1FOWnZzX1dEUTZlODNldDdURXhoWHFWZjU0VDJGSG9WeWxJZ040NElKWkVualA1SkR5d3NTNGR6Qmh3ZTVibWkycFpwMlpRRXNFLWFrRHRyT3dDcGw4SENTRHNqaUMtbmlRUEhoaHRRSmUxT1plemJYbmdEOThZZGNYVlNERjB6Xzgwc3pVVmRVRU9BcFpCU1MzVG9qVzRWZklKbGN3Wl9BUXFPZEFMQm9UaG5USllJZkN2S19tODBdLS0+PC9nPjwvc3ZnPg==;" vertex="1" parent="1">
            <mxGeometry x="-390" y="-20" width="952" height="464" as="geometry" />
          </mxCell>
        </UserObject>
        <UserObject label="" plantUmlData="{&#xa;  &quot;data&quot;: &quot;@startuml\ntitle Penalty Application Workflow\n\nparticipant \&quot;Lending Engine\&quot; as LE #LightGreen\nparticipant \&quot;Notification Service\&quot; as NS #LightSkyBlue\nparticipant \&quot;Core Banking Engine\&quot; as CBE #LightGray\n\n&#39;Loan repayment monitoring\nLE -&gt; LE: Monitor loan repayment schedule\nLE -&gt; LE: Detect overdue payment\n\n&#39;Penalty calculation and logging (critical flow)\nLE -&gt; LE: Calculate penalty amount #Red\nLE -&gt; CBE: Create journal entry for penalty #Red\nCBE -&gt; LE: Confirm penalty application #Red\n\n&#39;Notification to member\nLE -&gt; NS: Notify member of penalty\nNS -&gt; Member: Notification received\n@enduml&quot;,&#xa;  &quot;format&quot;: &quot;svg&quot;&#xa;}" id="AoYrLWxrWw_sPU3_he-3-7">
          <mxCell style="shape=image;noLabel=1;verticalAlign=top;aspect=fixed;imageAspect=0;image=data:image/svg+xml,PD94bWwgdmVyc2lvbj0iMS4wIiBlbmNvZGluZz0idXMtYXNjaWkiIHN0YW5kYWxvbmU9Im5vIj8+PHN2ZyB4bWxucz0iaHR0cDovL3d3dy53My5vcmcvMjAwMC9zdmciIHhtbG5zOnhsaW5rPSJodHRwOi8vd3d3LnczLm9yZy8xOTk5L3hsaW5rIiBjb250ZW50U3R5bGVUeXBlPSJ0ZXh0L2NzcyIgaGVpZ2h0PSIzNTlweCIgcHJlc2VydmVBc3BlY3RSYXRpbz0ibm9uZSIgc3R5bGU9IndpZHRoOjU5M3B4O2hlaWdodDozNTlweDtiYWNrZ3JvdW5kOiNGRkZGRkY7IiB2ZXJzaW9uPSIxLjEiIHZpZXdCb3g9IjAgMCA1OTMgMzU5IiB3aWR0aD0iNTkzcHgiIHpvb21BbmRQYW49Im1hZ25pZnkiPjxkZWZzLz48Zz48dGV4dCBmaWxsPSIjMDAwMDAwIiBmb250LWZhbWlseT0ic2Fucy1zZXJpZiIgZm9udC1zaXplPSIxNCIgZm9udC13ZWlnaHQ9ImJvbGQiIGxlbmd0aEFkanVzdD0ic3BhY2luZyIgdGV4dExlbmd0aD0iMTk3IiB4PSIxOTciIHk9IjI4LjIzNDQiPlBlbmFsdHkgQXBwbGljYXRpb24gV29ya2Zsb3c8L3RleHQ+PGxpbmUgc3R5bGU9InN0cm9rZTojMTgxODE4O3N0cm9rZS13aWR0aDowLjU7c3Ryb2tlLWRhc2hhcnJheTo1LjAsNS4wOyIgeDE9IjYxIiB4Mj0iNjEiIHkxPSI3MC45Njg4IiB5Mj0iMzI1LjM2NzIiLz48bGluZSBzdHlsZT0ic3Ryb2tlOiMxODE4MTg7c3Ryb2tlLXdpZHRoOjAuNTtzdHJva2UtZGFzaGFycmF5OjUuMCw1LjA7IiB4MT0iMjg2IiB4Mj0iMjg2IiB5MT0iNzAuOTY4OCIgeTI9IjMyNS4zNjcyIi8+PGxpbmUgc3R5bGU9InN0cm9rZTojMTgxODE4O3N0cm9rZS13aWR0aDowLjU7c3Ryb2tlLWRhc2hhcnJheTo1LjAsNS4wOyIgeDE9IjQ0NiIgeDI9IjQ0NiIgeTE9IjcwLjk2ODgiIHkyPSIzMjUuMzY3MiIvPjxsaW5lIHN0eWxlPSJzdHJva2U6IzE4MTgxODtzdHJva2Utd2lkdGg6MC41O3N0cm9rZS1kYXNoYXJyYXk6NS4wLDUuMDsiIHgxPSI1NTgiIHgyPSI1NTgiIHkxPSI3MC45Njg4IiB5Mj0iMzI1LjM2NzIiLz48cmVjdCBmaWxsPSIjOTBFRTkwIiBoZWlnaHQ9IjI4Ljk4NDQiIHJ4PSIyLjUiIHJ5PSIyLjUiIHN0eWxlPSJzdHJva2U6IzE4MTgxODtzdHJva2Utd2lkdGg6MC41OyIgd2lkdGg9IjExMiIgeD0iNSIgeT0iNDAuOTg0NCIvPjx0ZXh0IGZpbGw9IiMwMDAwMDAiIGZvbnQtZmFtaWx5PSJzYW5zLXNlcmlmIiBmb250LXNpemU9IjE0IiBsZW5ndGhBZGp1c3Q9InNwYWNpbmciIHRleHRMZW5ndGg9Ijk4IiB4PSIxMiIgeT0iNjEuMjE4OCI+TGVuZGluZyBFbmdpbmU8L3RleHQ+PHJlY3QgZmlsbD0iIzkwRUU5MCIgaGVpZ2h0PSIyOC45ODQ0IiByeD0iMi41IiByeT0iMi41IiBzdHlsZT0ic3Ryb2tlOiMxODE4MTg7c3Ryb2tlLXdpZHRoOjAuNTsiIHdpZHRoPSIxMTIiIHg9IjUiIHk9IjMyNC4zNjcyIi8+PHRleHQgZmlsbD0iIzAwMDAwMCIgZm9udC1mYW1pbHk9InNhbnMtc2VyaWYiIGZvbnQtc2l6ZT0iMTQiIGxlbmd0aEFkanVzdD0ic3BhY2luZyIgdGV4dExlbmd0aD0iOTgiIHg9IjEyIiB5PSIzNDQuNjAxNiI+TGVuZGluZyBFbmdpbmU8L3RleHQ+PHJlY3QgZmlsbD0iIzg3Q0VGQSIgaGVpZ2h0PSIyOC45ODQ0IiByeD0iMi41IiByeT0iMi41IiBzdHlsZT0ic3Ryb2tlOiMxODE4MTg7c3Ryb2tlLXdpZHRoOjAuNTsiIHdpZHRoPSIxNTQiIHg9IjIwOSIgeT0iNDAuOTg0NCIvPjx0ZXh0IGZpbGw9IiMwMDAwMDAiIGZvbnQtZmFtaWx5PSJzYW5zLXNlcmlmIiBmb250LXNpemU9IjE0IiBsZW5ndGhBZGp1c3Q9InNwYWNpbmciIHRleHRMZW5ndGg9IjE0MCIgeD0iMjE2IiB5PSI2MS4yMTg4Ij5Ob3RpZmljYXRpb24gU2VydmljZTwvdGV4dD48cmVjdCBmaWxsPSIjODdDRUZBIiBoZWlnaHQ9IjI4Ljk4NDQiIHJ4PSIyLjUiIHJ5PSIyLjUiIHN0eWxlPSJzdHJva2U6IzE4MTgxODtzdHJva2Utd2lkdGg6MC41OyIgd2lkdGg9IjE1NCIgeD0iMjA5IiB5PSIzMjQuMzY3MiIvPjx0ZXh0IGZpbGw9IiMwMDAwMDAiIGZvbnQtZmFtaWx5PSJzYW5zLXNlcmlmIiBmb250LXNpemU9IjE0IiBsZW5ndGhBZGp1c3Q9InNwYWNpbmciIHRleHRMZW5ndGg9IjE0MCIgeD0iMjE2IiB5PSIzNDQuNjAxNiI+Tm90aWZpY2F0aW9uIFNlcnZpY2U8L3RleHQ+PHJlY3QgZmlsbD0iI0QzRDNEMyIgaGVpZ2h0PSIyOC45ODQ0IiByeD0iMi41IiByeT0iMi41IiBzdHlsZT0ic3Ryb2tlOiMxODE4MTg7c3Ryb2tlLXdpZHRoOjAuNTsiIHdpZHRoPSIxNDciIHg9IjM3MyIgeT0iNDAuOTg0NCIvPjx0ZXh0IGZpbGw9IiMwMDAwMDAiIGZvbnQtZmFtaWx5PSJzYW5zLXNlcmlmIiBmb250LXNpemU9IjE0IiBsZW5ndGhBZGp1c3Q9InNwYWNpbmciIHRleHRMZW5ndGg9IjEzMyIgeD0iMzgwIiB5PSI2MS4yMTg4Ij5Db3JlIEJhbmtpbmcgRW5naW5lPC90ZXh0PjxyZWN0IGZpbGw9IiNEM0QzRDMiIGhlaWdodD0iMjguOTg0NCIgcng9IjIuNSIgcnk9IjIuNSIgc3R5bGU9InN0cm9rZTojMTgxODE4O3N0cm9rZS13aWR0aDowLjU7IiB3aWR0aD0iMTQ3IiB4PSIzNzMiIHk9IjMyNC4zNjcyIi8+PHRleHQgZmlsbD0iIzAwMDAwMCIgZm9udC1mYW1pbHk9InNhbnMtc2VyaWYiIGZvbnQtc2l6ZT0iMTQiIGxlbmd0aEFkanVzdD0ic3BhY2luZyIgdGV4dExlbmd0aD0iMTMzIiB4PSIzODAiIHk9IjM0NC42MDE2Ij5Db3JlIEJhbmtpbmcgRW5naW5lPC90ZXh0PjxyZWN0IGZpbGw9IiNFMkUyRjAiIGhlaWdodD0iMjguOTg0NCIgcng9IjIuNSIgcnk9IjIuNSIgc3R5bGU9InN0cm9rZTojMTgxODE4O3N0cm9rZS13aWR0aDowLjU7IiB3aWR0aD0iNTciIHg9IjUzMCIgeT0iNDAuOTg0NCIvPjx0ZXh0IGZpbGw9IiMwMDAwMDAiIGZvbnQtZmFtaWx5PSJzYW5zLXNlcmlmIiBmb250LXNpemU9IjE0IiBsZW5ndGhBZGp1c3Q9InNwYWNpbmciIHRleHRMZW5ndGg9IjQzIiB4PSI1MzciIHk9IjYxLjIxODgiPk1lbWJlcjwvdGV4dD48cmVjdCBmaWxsPSIjRTJFMkYwIiBoZWlnaHQ9IjI4Ljk4NDQiIHJ4PSIyLjUiIHJ5PSIyLjUiIHN0eWxlPSJzdHJva2U6IzE4MTgxODtzdHJva2Utd2lkdGg6MC41OyIgd2lkdGg9IjU3IiB4PSI1MzAiIHk9IjMyNC4zNjcyIi8+PHRleHQgZmlsbD0iIzAwMDAwMCIgZm9udC1mYW1pbHk9InNhbnMtc2VyaWYiIGZvbnQtc2l6ZT0iMTQiIGxlbmd0aEFkanVzdD0ic3BhY2luZyIgdGV4dExlbmd0aD0iNDMiIHg9IjUzNyIgeT0iMzQ0LjYwMTYiPk1lbWJlcjwvdGV4dD48bGluZSBzdHlsZT0ic3Ryb2tlOiMxODE4MTg7c3Ryb2tlLXdpZHRoOjEuMDsiIHgxPSI2MSIgeDI9IjEwMyIgeTE9IjEwMC44ODI4IiB5Mj0iMTAwLjg4MjgiLz48bGluZSBzdHlsZT0ic3Ryb2tlOiMxODE4MTg7c3Ryb2tlLXdpZHRoOjEuMDsiIHgxPSIxMDMiIHgyPSIxMDMiIHkxPSIxMDAuODgyOCIgeTI9IjExMy44ODI4Ii8+PGxpbmUgc3R5bGU9InN0cm9rZTojMTgxODE4O3N0cm9rZS13aWR0aDoxLjA7IiB4MT0iNjIiIHgyPSIxMDMiIHkxPSIxMTMuODgyOCIgeTI9IjExMy44ODI4Ii8+PHBvbHlnb24gZmlsbD0iIzE4MTgxOCIgcG9pbnRzPSI3MiwxMDkuODgyOCw2MiwxMTMuODgyOCw3MiwxMTcuODgyOCw2OCwxMTMuODgyOCIgc3R5bGU9InN0cm9rZTojMTgxODE4O3N0cm9rZS13aWR0aDoxLjA7Ii8+PHRleHQgZmlsbD0iIzAwMDAwMCIgZm9udC1mYW1pbHk9InNhbnMtc2VyaWYiIGZvbnQtc2l6ZT0iMTMiIGxlbmd0aEFkanVzdD0ic3BhY2luZyIgdGV4dExlbmd0aD0iMjExIiB4PSI2OCIgeT0iOTcuMjU3OCI+TW9uaXRvciBsb2FuIHJlcGF5bWVudCBzY2hlZHVsZTwvdGV4dD48bGluZSBzdHlsZT0ic3Ryb2tlOiMxODE4MTg7c3Ryb2tlLXdpZHRoOjEuMDsiIHgxPSI2MSIgeDI9IjEwMyIgeTE9IjE0MS43OTY5IiB5Mj0iMTQxLjc5NjkiLz48bGluZSBzdHlsZT0ic3Ryb2tlOiMxODE4MTg7c3Ryb2tlLXdpZHRoOjEuMDsiIHgxPSIxMDMiIHgyPSIxMDMiIHkxPSIxNDEuNzk2OSIgeTI9IjE1NC43OTY5Ii8+PGxpbmUgc3R5bGU9InN0cm9rZTojMTgxODE4O3N0cm9rZS13aWR0aDoxLjA7IiB4MT0iNjIiIHgyPSIxMDMiIHkxPSIxNTQuNzk2OSIgeTI9IjE1NC43OTY5Ii8+PHBvbHlnb24gZmlsbD0iIzE4MTgxOCIgcG9pbnRzPSI3MiwxNTAuNzk2OSw2MiwxNTQuNzk2OSw3MiwxNTguNzk2OSw2OCwxNTQuNzk2OSIgc3R5bGU9InN0cm9rZTojMTgxODE4O3N0cm9rZS13aWR0aDoxLjA7Ii8+PHRleHQgZmlsbD0iIzAwMDAwMCIgZm9udC1mYW1pbHk9InNhbnMtc2VyaWYiIGZvbnQtc2l6ZT0iMTMiIGxlbmd0aEFkanVzdD0ic3BhY2luZyIgdGV4dExlbmd0aD0iMTUwIiB4PSI2OCIgeT0iMTM4LjE3MTkiPkRldGVjdCBvdmVyZHVlIHBheW1lbnQ8L3RleHQ+PGxpbmUgc3R5bGU9InN0cm9rZTojMTgxODE4O3N0cm9rZS13aWR0aDoxLjA7IiB4MT0iNjEiIHgyPSIxMDMiIHkxPSIxODIuNzEwOSIgeTI9IjE4Mi43MTA5Ii8+PGxpbmUgc3R5bGU9InN0cm9rZTojMTgxODE4O3N0cm9rZS13aWR0aDoxLjA7IiB4MT0iMTAzIiB4Mj0iMTAzIiB5MT0iMTgyLjcxMDkiIHkyPSIxOTUuNzEwOSIvPjxsaW5lIHN0eWxlPSJzdHJva2U6IzE4MTgxODtzdHJva2Utd2lkdGg6MS4wOyIgeDE9IjYyIiB4Mj0iMTAzIiB5MT0iMTk1LjcxMDkiIHkyPSIxOTUuNzEwOSIvPjxwb2x5Z29uIGZpbGw9IiMxODE4MTgiIHBvaW50cz0iNzIsMTkxLjcxMDksNjIsMTk1LjcxMDksNzIsMTk5LjcxMDksNjgsMTk1LjcxMDkiIHN0eWxlPSJzdHJva2U6IzE4MTgxODtzdHJva2Utd2lkdGg6MS4wOyIvPjx0ZXh0IGZpbGw9IiMwMDAwMDAiIGZvbnQtZmFtaWx5PSJzYW5zLXNlcmlmIiBmb250LXNpemU9IjEzIiBsZW5ndGhBZGp1c3Q9InNwYWNpbmciIHRleHRMZW5ndGg9IjE5NyIgeD0iNjgiIHk9IjE3OS4wODU5Ij5DYWxjdWxhdGUgcGVuYWx0eSBhbW91bnQgI1JlZDwvdGV4dD48cG9seWdvbiBmaWxsPSIjMTgxODE4IiBwb2ludHM9IjQzNC41LDIxOS42MjUsNDQ0LjUsMjIzLjYyNSw0MzQuNSwyMjcuNjI1LDQzOC41LDIyMy42MjUiIHN0eWxlPSJzdHJva2U6IzE4MTgxODtzdHJva2Utd2lkdGg6MS4wOyIvPjxsaW5lIHN0eWxlPSJzdHJva2U6IzE4MTgxODtzdHJva2Utd2lkdGg6MS4wOyIgeDE9IjYxIiB4Mj0iNDQwLjUiIHkxPSIyMjMuNjI1IiB5Mj0iMjIzLjYyNSIvPjx0ZXh0IGZpbGw9IiMwMDAwMDAiIGZvbnQtZmFtaWx5PSJzYW5zLXNlcmlmIiBmb250LXNpemU9IjEzIiBsZW5ndGhBZGp1c3Q9InNwYWNpbmciIHRleHRMZW5ndGg9IjI1NCIgeD0iNjgiIHk9IjIyMCI+Q3JlYXRlIGpvdXJuYWwgZW50cnkgZm9yIHBlbmFsdHkgI1JlZDwvdGV4dD48cG9seWdvbiBmaWxsPSIjMTgxODE4IiBwb2ludHM9IjcyLDI0Ny41MzkxLDYyLDI1MS41MzkxLDcyLDI1NS41MzkxLDY4LDI1MS41MzkxIiBzdHlsZT0ic3Ryb2tlOiMxODE4MTg7c3Ryb2tlLXdpZHRoOjEuMDsiLz48bGluZSBzdHlsZT0ic3Ryb2tlOiMxODE4MTg7c3Ryb2tlLXdpZHRoOjEuMDsiIHgxPSI2NiIgeDI9IjQ0NS41IiB5MT0iMjUxLjUzOTEiIHkyPSIyNTEuNTM5MSIvPjx0ZXh0IGZpbGw9IiMwMDAwMDAiIGZvbnQtZmFtaWx5PSJzYW5zLXNlcmlmIiBmb250LXNpemU9IjEzIiBsZW5ndGhBZGp1c3Q9InNwYWNpbmciIHRleHRMZW5ndGg9IjIxNiIgeD0iNzgiIHk9IjI0Ny45MTQxIj5Db25maXJtIHBlbmFsdHkgYXBwbGljYXRpb24gI1JlZDwvdGV4dD48cG9seWdvbiBmaWxsPSIjMTgxODE4IiBwb2ludHM9IjI3NCwyNzUuNDUzMSwyODQsMjc5LjQ1MzEsMjc0LDI4My40NTMxLDI3OCwyNzkuNDUzMSIgc3R5bGU9InN0cm9rZTojMTgxODE4O3N0cm9rZS13aWR0aDoxLjA7Ii8+PGxpbmUgc3R5bGU9InN0cm9rZTojMTgxODE4O3N0cm9rZS13aWR0aDoxLjA7IiB4MT0iNjEiIHgyPSIyODAiIHkxPSIyNzkuNDUzMSIgeTI9IjI3OS40NTMxIi8+PHRleHQgZmlsbD0iIzAwMDAwMCIgZm9udC1mYW1pbHk9InNhbnMtc2VyaWYiIGZvbnQtc2l6ZT0iMTMiIGxlbmd0aEFkanVzdD0ic3BhY2luZyIgdGV4dExlbmd0aD0iMTYwIiB4PSI2OCIgeT0iMjc1LjgyODEiPk5vdGlmeSBtZW1iZXIgb2YgcGVuYWx0eTwvdGV4dD48cG9seWdvbiBmaWxsPSIjMTgxODE4IiBwb2ludHM9IjU0Ni41LDMwMy4zNjcyLDU1Ni41LDMwNy4zNjcyLDU0Ni41LDMxMS4zNjcyLDU1MC41LDMwNy4zNjcyIiBzdHlsZT0ic3Ryb2tlOiMxODE4MTg7c3Ryb2tlLXdpZHRoOjEuMDsiLz48bGluZSBzdHlsZT0ic3Ryb2tlOiMxODE4MTg7c3Ryb2tlLXdpZHRoOjEuMDsiIHgxPSIyODYiIHgyPSI1NTIuNSIgeTE9IjMwNy4zNjcyIiB5Mj0iMzA3LjM2NzIiLz48dGV4dCBmaWxsPSIjMDAwMDAwIiBmb250LWZhbWlseT0ic2Fucy1zZXJpZiIgZm9udC1zaXplPSIxMyIgbGVuZ3RoQWRqdXN0PSJzcGFjaW5nIiB0ZXh0TGVuZ3RoPSIxNDAiIHg9IjI5MyIgeT0iMzAzLjc0MjIiPk5vdGlmaWNhdGlvbiByZWNlaXZlZDwvdGV4dD48IS0tU1JDPVtOUDZ6UmVEMDNDVnRVbWVoNlQ4RVZPNENiUGVxd2E5R0xPUkVyeUNHOXlTUEVHU0xScnozM1lMcWpOeF8zemtIZWFWdW42MXo3RTJqUkpxdjZ1YTNWQkRTQWktX25oSE04WmJnUk9ZbW9aMks1NmV1WDllMmhpMVU4SmwwRWdGdzUzeTRDSXBuZDJETGlzTTFxZkV4WVY4WVlPaEJpRkNUQmNMeDVlSVQzUFRfS1ZsVEZTaUVuY21valc0NE1waXFnQ0E2MHFLTUxIYmp6VkFndFJQbWwwdDFCemNoRXM3UFVObVd0cDZZWXkweklqYVg5NTladldDdndydGRSemxPS0FmYk5PeUxkdm9HamhTVW5mQ3pGclprYXFCVGFlVGprREZ1ekhVTVlURWo1MUdTZ0pEdGVYbmVoV25HUVVyUERtZDYweXBFNzJnSXZreHh5Qm85RFBsNXpJRDNXeXFGSWFoRFlvckNtOTNjbURMaVBsR3pZWG9kVVM5YzdxNjdyNkZ2MW0wMF0tLT48L2c+PC9zdmc+;" vertex="1" parent="1">
            <mxGeometry x="-200" y="490" width="593" height="359" as="geometry" />
          </mxCell>
        </UserObject>
        <UserObject label="" plantUmlData="{&#xa;  &quot;data&quot;: &quot;@startuml\ntitle Fraud Detection and Alert Workflow\n\nparticipant \&quot;Fraud Detection Engine\&quot; as FDE #LightGreen\nparticipant \&quot;Core Banking Engine\&quot; as CBE #LightGray\nparticipant \&quot;Notification Service\&quot; as NS #LightSkyBlue\nparticipant \&quot;Admin Service\&quot; as AS #LightYellow\nactor Admin #LightPink\n\n&#39;Fraud detection process\nFDE -&gt; CBE: Monitor transactions for anomalies\nCBE -&gt; FDE: Send transaction data\nFDE -&gt; FDE: Analyze for anomalies\n\n&#39;Fraud alert and resolution (critical flow)\nFDE -&gt; NS: Notify admin of fraud alert #Red\nNS -&gt; AS: Forward fraud alert #Red\nAS -&gt; Admin: Admin investigates fraud alert #Red\n\n&#39;Admin fraud resolution\nAdmin -&gt; AS: Take action (flag transactions or dismiss alert)\nAS -&gt; FDE: Update fraud status\n@enduml&quot;,&#xa;  &quot;format&quot;: &quot;svg&quot;&#xa;}" id="AoYrLWxrWw_sPU3_he-3-8">
          <mxCell style="shape=image;noLabel=1;verticalAlign=top;aspect=fixed;imageAspect=0;image=data:image/svg+xml,PD94bWwgdmVyc2lvbj0iMS4wIiBlbmNvZGluZz0idXMtYXNjaWkiIHN0YW5kYWxvbmU9Im5vIj8+PHN2ZyB4bWxucz0iaHR0cDovL3d3dy53My5vcmcvMjAwMC9zdmciIHhtbG5zOnhsaW5rPSJodHRwOi8vd3d3LnczLm9yZy8xOTk5L3hsaW5rIiBjb250ZW50U3R5bGVUeXBlPSJ0ZXh0L2NzcyIgaGVpZ2h0PSI0NTFweCIgcHJlc2VydmVBc3BlY3RSYXRpbz0ibm9uZSIgc3R5bGU9IndpZHRoOjEwNThweDtoZWlnaHQ6NDUxcHg7YmFja2dyb3VuZDojRkZGRkZGOyIgdmVyc2lvbj0iMS4xIiB2aWV3Qm94PSIwIDAgMTA1OCA0NTEiIHdpZHRoPSIxMDU4cHgiIHpvb21BbmRQYW49Im1hZ25pZnkiPjxkZWZzLz48Zz48dGV4dCBmaWxsPSIjMDAwMDAwIiBmb250LWZhbWlseT0ic2Fucy1zZXJpZiIgZm9udC1zaXplPSIxNCIgZm9udC13ZWlnaHQ9ImJvbGQiIGxlbmd0aEFkanVzdD0ic3BhY2luZyIgdGV4dExlbmd0aD0iMjM5IiB4PSI0MTEuMjUiIHk9IjI4LjIzNDQiPkZyYXVkIERldGVjdGlvbiBhbmQgQWxlcnQgV29ya2Zsb3c8L3RleHQ+PGxpbmUgc3R5bGU9InN0cm9rZTojMTgxODE4O3N0cm9rZS13aWR0aDowLjU7c3Ryb2tlLWRhc2hhcnJheTo1LjAsNS4wOyIgeDE9Ijg5IiB4Mj0iODkiIHkxPSIxMTUuOTY4OCIgeTI9IjM3Mi4yODEzIi8+PGxpbmUgc3R5bGU9InN0cm9rZTojMTgxODE4O3N0cm9rZS13aWR0aDowLjU7c3Ryb2tlLWRhc2hhcnJheTo1LjAsNS4wOyIgeDE9IjM0MS41IiB4Mj0iMzQxLjUiIHkxPSIxMTUuOTY4OCIgeTI9IjM3Mi4yODEzIi8+PGxpbmUgc3R5bGU9InN0cm9rZTojMTgxODE4O3N0cm9rZS13aWR0aDowLjU7c3Ryb2tlLWRhc2hhcnJheTo1LjAsNS4wOyIgeDE9IjUwMi41IiB4Mj0iNTAyLjUiIHkxPSIxMTUuOTY4OCIgeTI9IjM3Mi4yODEzIi8+PGxpbmUgc3R5bGU9InN0cm9rZTojMTgxODE4O3N0cm9rZS13aWR0aDowLjU7c3Ryb2tlLWRhc2hhcnJheTo1LjAsNS4wOyIgeDE9IjY5MS41IiB4Mj0iNjkxLjUiIHkxPSIxMTUuOTY4OCIgeTI9IjM3Mi4yODEzIi8+PGxpbmUgc3R5bGU9InN0cm9rZTojMTgxODE4O3N0cm9rZS13aWR0aDowLjU7c3Ryb2tlLWRhc2hhcnJheTo1LjAsNS4wOyIgeDE9IjEwMzYuNSIgeDI9IjEwMzYuNSIgeTE9IjExNS45Njg4IiB5Mj0iMzcyLjI4MTMiLz48cmVjdCBmaWxsPSIjOTBFRTkwIiBoZWlnaHQ9IjI4Ljk4NDQiIHJ4PSIyLjUiIHJ5PSIyLjUiIHN0eWxlPSJzdHJva2U6IzE4MTgxODtzdHJva2Utd2lkdGg6MC41OyIgd2lkdGg9IjE2OCIgeD0iNSIgeT0iODUuOTg0NCIvPjx0ZXh0IGZpbGw9IiMwMDAwMDAiIGZvbnQtZmFtaWx5PSJzYW5zLXNlcmlmIiBmb250LXNpemU9IjE0IiBsZW5ndGhBZGp1c3Q9InNwYWNpbmciIHRleHRMZW5ndGg9IjE1NCIgeD0iMTIiIHk9IjEwNi4yMTg4Ij5GcmF1ZCBEZXRlY3Rpb24gRW5naW5lPC90ZXh0PjxyZWN0IGZpbGw9IiM5MEVFOTAiIGhlaWdodD0iMjguOTg0NCIgcng9IjIuNSIgcnk9IjIuNSIgc3R5bGU9InN0cm9rZTojMTgxODE4O3N0cm9rZS13aWR0aDowLjU7IiB3aWR0aD0iMTY4IiB4PSI1IiB5PSIzNzEuMjgxMyIvPjx0ZXh0IGZpbGw9IiMwMDAwMDAiIGZvbnQtZmFtaWx5PSJzYW5zLXNlcmlmIiBmb250LXNpemU9IjE0IiBsZW5ndGhBZGp1c3Q9InNwYWNpbmciIHRleHRMZW5ndGg9IjE1NCIgeD0iMTIiIHk9IjM5MS41MTU2Ij5GcmF1ZCBEZXRlY3Rpb24gRW5naW5lPC90ZXh0PjxyZWN0IGZpbGw9IiNEM0QzRDMiIGhlaWdodD0iMjguOTg0NCIgcng9IjIuNSIgcnk9IjIuNSIgc3R5bGU9InN0cm9rZTojMTgxODE4O3N0cm9rZS13aWR0aDowLjU7IiB3aWR0aD0iMTQ3IiB4PSIyNjguNSIgeT0iODUuOTg0NCIvPjx0ZXh0IGZpbGw9IiMwMDAwMDAiIGZvbnQtZmFtaWx5PSJzYW5zLXNlcmlmIiBmb250LXNpemU9IjE0IiBsZW5ndGhBZGp1c3Q9InNwYWNpbmciIHRleHRMZW5ndGg9IjEzMyIgeD0iMjc1LjUiIHk9IjEwNi4yMTg4Ij5Db3JlIEJhbmtpbmcgRW5naW5lPC90ZXh0PjxyZWN0IGZpbGw9IiNEM0QzRDMiIGhlaWdodD0iMjguOTg0NCIgcng9IjIuNSIgcnk9IjIuNSIgc3R5bGU9InN0cm9rZTojMTgxODE4O3N0cm9rZS13aWR0aDowLjU7IiB3aWR0aD0iMTQ3IiB4PSIyNjguNSIgeT0iMzcxLjI4MTMiLz48dGV4dCBmaWxsPSIjMDAwMDAwIiBmb250LWZhbWlseT0ic2Fucy1zZXJpZiIgZm9udC1zaXplPSIxNCIgbGVuZ3RoQWRqdXN0PSJzcGFjaW5nIiB0ZXh0TGVuZ3RoPSIxMzMiIHg9IjI3NS41IiB5PSIzOTEuNTE1NiI+Q29yZSBCYW5raW5nIEVuZ2luZTwvdGV4dD48cmVjdCBmaWxsPSIjODdDRUZBIiBoZWlnaHQ9IjI4Ljk4NDQiIHJ4PSIyLjUiIHJ5PSIyLjUiIHN0eWxlPSJzdHJva2U6IzE4MTgxODtzdHJva2Utd2lkdGg6MC41OyIgd2lkdGg9IjE1NCIgeD0iNDI1LjUiIHk9Ijg1Ljk4NDQiLz48dGV4dCBmaWxsPSIjMDAwMDAwIiBmb250LWZhbWlseT0ic2Fucy1zZXJpZiIgZm9udC1zaXplPSIxNCIgbGVuZ3RoQWRqdXN0PSJzcGFjaW5nIiB0ZXh0TGVuZ3RoPSIxNDAiIHg9IjQzMi41IiB5PSIxMDYuMjE4OCI+Tm90aWZpY2F0aW9uIFNlcnZpY2U8L3RleHQ+PHJlY3QgZmlsbD0iIzg3Q0VGQSIgaGVpZ2h0PSIyOC45ODQ0IiByeD0iMi41IiByeT0iMi41IiBzdHlsZT0ic3Ryb2tlOiMxODE4MTg7c3Ryb2tlLXdpZHRoOjAuNTsiIHdpZHRoPSIxNTQiIHg9IjQyNS41IiB5PSIzNzEuMjgxMyIvPjx0ZXh0IGZpbGw9IiMwMDAwMDAiIGZvbnQtZmFtaWx5PSJzYW5zLXNlcmlmIiBmb250LXNpemU9IjE0IiBsZW5ndGhBZGp1c3Q9InNwYWNpbmciIHRleHRMZW5ndGg9IjE0MCIgeD0iNDMyLjUiIHk9IjM5MS41MTU2Ij5Ob3RpZmljYXRpb24gU2VydmljZTwvdGV4dD48cmVjdCBmaWxsPSIjRkZGRkUwIiBoZWlnaHQ9IjI4Ljk4NDQiIHJ4PSIyLjUiIHJ5PSIyLjUiIHN0eWxlPSJzdHJva2U6IzE4MTgxODtzdHJva2Utd2lkdGg6MC41OyIgd2lkdGg9IjEwNiIgeD0iNjM4LjUiIHk9Ijg1Ljk4NDQiLz48dGV4dCBmaWxsPSIjMDAwMDAwIiBmb250LWZhbWlseT0ic2Fucy1zZXJpZiIgZm9udC1zaXplPSIxNCIgbGVuZ3RoQWRqdXN0PSJzcGFjaW5nIiB0ZXh0TGVuZ3RoPSI5MiIgeD0iNjQ1LjUiIHk9IjEwNi4yMTg4Ij5BZG1pbiBTZXJ2aWNlPC90ZXh0PjxyZWN0IGZpbGw9IiNGRkZGRTAiIGhlaWdodD0iMjguOTg0NCIgcng9IjIuNSIgcnk9IjIuNSIgc3R5bGU9InN0cm9rZTojMTgxODE4O3N0cm9rZS13aWR0aDowLjU7IiB3aWR0aD0iMTA2IiB4PSI2MzguNSIgeT0iMzcxLjI4MTMiLz48dGV4dCBmaWxsPSIjMDAwMDAwIiBmb250LWZhbWlseT0ic2Fucy1zZXJpZiIgZm9udC1zaXplPSIxNCIgbGVuZ3RoQWRqdXN0PSJzcGFjaW5nIiB0ZXh0TGVuZ3RoPSI5MiIgeD0iNjQ1LjUiIHk9IjM5MS41MTU2Ij5BZG1pbiBTZXJ2aWNlPC90ZXh0Pjx0ZXh0IGZpbGw9IiMwMDAwMDAiIGZvbnQtZmFtaWx5PSJzYW5zLXNlcmlmIiBmb250LXNpemU9IjE0IiBsZW5ndGhBZGp1c3Q9InNwYWNpbmciIHRleHRMZW5ndGg9IjM2IiB4PSIxMDE1LjUiIHk9IjExNC4yMTg4Ij5BZG1pbjwvdGV4dD48ZWxsaXBzZSBjeD0iMTAzNi41IiBjeT0iNDkuNDg0NCIgZmlsbD0iI0ZGQjZDMSIgcng9IjgiIHJ5PSI4IiBzdHlsZT0ic3Ryb2tlOiMxODE4MTg7c3Ryb2tlLXdpZHRoOjAuNTsiLz48cGF0aCBkPSJNMTAzNi41LDU3LjQ4NDQgTDEwMzYuNSw4NC40ODQ0IE0xMDIzLjUsNjUuNDg0NCBMMTA0OS41LDY1LjQ4NDQgTTEwMzYuNSw4NC40ODQ0IEwxMDIzLjUsOTkuNDg0NCBNMTAzNi41LDg0LjQ4NDQgTDEwNDkuNSw5OS40ODQ0ICIgZmlsbD0ibm9uZSIgc3R5bGU9InN0cm9rZTojMTgxODE4O3N0cm9rZS13aWR0aDowLjU7Ii8+PHRleHQgZmlsbD0iIzAwMDAwMCIgZm9udC1mYW1pbHk9InNhbnMtc2VyaWYiIGZvbnQtc2l6ZT0iMTQiIGxlbmd0aEFkanVzdD0ic3BhY2luZyIgdGV4dExlbmd0aD0iMzYiIHg9IjEwMTUuNSIgeT0iMzg0LjUxNTYiPkFkbWluPC90ZXh0PjxlbGxpcHNlIGN4PSIxMDM2LjUiIGN5PSIzOTQuNzY1NiIgZmlsbD0iI0ZGQjZDMSIgcng9IjgiIHJ5PSI4IiBzdHlsZT0ic3Ryb2tlOiMxODE4MTg7c3Ryb2tlLXdpZHRoOjAuNTsiLz48cGF0aCBkPSJNMTAzNi41LDQwMi43NjU2IEwxMDM2LjUsNDI5Ljc2NTYgTTEwMjMuNSw0MTAuNzY1NiBMMTA0OS41LDQxMC43NjU2IE0xMDM2LjUsNDI5Ljc2NTYgTDEwMjMuNSw0NDQuNzY1NiBNMTAzNi41LDQyOS43NjU2IEwxMDQ5LjUsNDQ0Ljc2NTYgIiBmaWxsPSJub25lIiBzdHlsZT0ic3Ryb2tlOiMxODE4MTg7c3Ryb2tlLXdpZHRoOjAuNTsiLz48cG9seWdvbiBmaWxsPSIjMTgxODE4IiBwb2ludHM9IjMzMCwxNDEuODgyOCwzNDAsMTQ1Ljg4MjgsMzMwLDE0OS44ODI4LDMzNCwxNDUuODgyOCIgc3R5bGU9InN0cm9rZTojMTgxODE4O3N0cm9rZS13aWR0aDoxLjA7Ii8+PGxpbmUgc3R5bGU9InN0cm9rZTojMTgxODE4O3N0cm9rZS13aWR0aDoxLjA7IiB4MT0iODkiIHgyPSIzMzYiIHkxPSIxNDUuODgyOCIgeTI9IjE0NS44ODI4Ii8+PHRleHQgZmlsbD0iIzAwMDAwMCIgZm9udC1mYW1pbHk9InNhbnMtc2VyaWYiIGZvbnQtc2l6ZT0iMTMiIGxlbmd0aEFkanVzdD0ic3BhY2luZyIgdGV4dExlbmd0aD0iMjI5IiB4PSI5NiIgeT0iMTQyLjI1NzgiPk1vbml0b3IgdHJhbnNhY3Rpb25zIGZvciBhbm9tYWxpZXM8L3RleHQ+PHBvbHlnb24gZmlsbD0iIzE4MTgxOCIgcG9pbnRzPSIxMDAsMTY5Ljc5NjksOTAsMTczLjc5NjksMTAwLDE3Ny43OTY5LDk2LDE3My43OTY5IiBzdHlsZT0ic3Ryb2tlOiMxODE4MTg7c3Ryb2tlLXdpZHRoOjEuMDsiLz48bGluZSBzdHlsZT0ic3Ryb2tlOiMxODE4MTg7c3Ryb2tlLXdpZHRoOjEuMDsiIHgxPSI5NCIgeDI9IjM0MSIgeTE9IjE3My43OTY5IiB5Mj0iMTczLjc5NjkiLz48dGV4dCBmaWxsPSIjMDAwMDAwIiBmb250LWZhbWlseT0ic2Fucy1zZXJpZiIgZm9udC1zaXplPSIxMyIgbGVuZ3RoQWRqdXN0PSJzcGFjaW5nIiB0ZXh0TGVuZ3RoPSIxNDMiIHg9IjEwNiIgeT0iMTcwLjE3MTkiPlNlbmQgdHJhbnNhY3Rpb24gZGF0YTwvdGV4dD48bGluZSBzdHlsZT0ic3Ryb2tlOiMxODE4MTg7c3Ryb2tlLXdpZHRoOjEuMDsiIHgxPSI4OSIgeDI9IjEzMSIgeTE9IjIwMS43MTA5IiB5Mj0iMjAxLjcxMDkiLz48bGluZSBzdHlsZT0ic3Ryb2tlOiMxODE4MTg7c3Ryb2tlLXdpZHRoOjEuMDsiIHgxPSIxMzEiIHgyPSIxMzEiIHkxPSIyMDEuNzEwOSIgeTI9IjIxNC43MTA5Ii8+PGxpbmUgc3R5bGU9InN0cm9rZTojMTgxODE4O3N0cm9rZS13aWR0aDoxLjA7IiB4MT0iOTAiIHgyPSIxMzEiIHkxPSIyMTQuNzEwOSIgeTI9IjIxNC43MTA5Ii8+PHBvbHlnb24gZmlsbD0iIzE4MTgxOCIgcG9pbnRzPSIxMDAsMjEwLjcxMDksOTAsMjE0LjcxMDksMTAwLDIxOC43MTA5LDk2LDIxNC43MTA5IiBzdHlsZT0ic3Ryb2tlOiMxODE4MTg7c3Ryb2tlLXdpZHRoOjEuMDsiLz48dGV4dCBmaWxsPSIjMDAwMDAwIiBmb250LWZhbWlseT0ic2Fucy1zZXJpZiIgZm9udC1zaXplPSIxMyIgbGVuZ3RoQWRqdXN0PSJzcGFjaW5nIiB0ZXh0TGVuZ3RoPSIxNDIiIHg9Ijk2IiB5PSIxOTguMDg1OSI+QW5hbHl6ZSBmb3IgYW5vbWFsaWVzPC90ZXh0Pjxwb2x5Z29uIGZpbGw9IiMxODE4MTgiIHBvaW50cz0iNDkwLjUsMjM4LjYyNSw1MDAuNSwyNDIuNjI1LDQ5MC41LDI0Ni42MjUsNDk0LjUsMjQyLjYyNSIgc3R5bGU9InN0cm9rZTojMTgxODE4O3N0cm9rZS13aWR0aDoxLjA7Ii8+PGxpbmUgc3R5bGU9InN0cm9rZTojMTgxODE4O3N0cm9rZS13aWR0aDoxLjA7IiB4MT0iODkiIHgyPSI0OTYuNSIgeTE9IjI0Mi42MjUiIHkyPSIyNDIuNjI1Ii8+PHRleHQgZmlsbD0iIzAwMDAwMCIgZm9udC1mYW1pbHk9InNhbnMtc2VyaWYiIGZvbnQtc2l6ZT0iMTMiIGxlbmd0aEFkanVzdD0ic3BhY2luZyIgdGV4dExlbmd0aD0iMjE2IiB4PSI5NiIgeT0iMjM5Ij5Ob3RpZnkgYWRtaW4gb2YgZnJhdWQgYWxlcnQgI1JlZDwvdGV4dD48cG9seWdvbiBmaWxsPSIjMTgxODE4IiBwb2ludHM9IjY3OS41LDI2Ni41MzkxLDY4OS41LDI3MC41MzkxLDY3OS41LDI3NC41MzkxLDY4My41LDI3MC41MzkxIiBzdHlsZT0ic3Ryb2tlOiMxODE4MTg7c3Ryb2tlLXdpZHRoOjEuMDsiLz48bGluZSBzdHlsZT0ic3Ryb2tlOiMxODE4MTg7c3Ryb2tlLXdpZHRoOjEuMDsiIHgxPSI1MDIuNSIgeDI9IjY4NS41IiB5MT0iMjcwLjUzOTEiIHkyPSIyNzAuNTM5MSIvPjx0ZXh0IGZpbGw9IiMwMDAwMDAiIGZvbnQtZmFtaWx5PSJzYW5zLXNlcmlmIiBmb250LXNpemU9IjEzIiBsZW5ndGhBZGp1c3Q9InNwYWNpbmciIHRleHRMZW5ndGg9IjE2NSIgeD0iNTA5LjUiIHk9IjI2Ni45MTQxIj5Gb3J3YXJkIGZyYXVkIGFsZXJ0ICNSZWQ8L3RleHQ+PHBvbHlnb24gZmlsbD0iIzE4MTgxOCIgcG9pbnRzPSIxMDI0LjUsMjk0LjQ1MzEsMTAzNC41LDI5OC40NTMxLDEwMjQuNSwzMDIuNDUzMSwxMDI4LjUsMjk4LjQ1MzEiIHN0eWxlPSJzdHJva2U6IzE4MTgxODtzdHJva2Utd2lkdGg6MS4wOyIvPjxsaW5lIHN0eWxlPSJzdHJva2U6IzE4MTgxODtzdHJva2Utd2lkdGg6MS4wOyIgeDE9IjY5MS41IiB4Mj0iMTAzMC41IiB5MT0iMjk4LjQ1MzEiIHkyPSIyOTguNDUzMSIvPjx0ZXh0IGZpbGw9IiMwMDAwMDAiIGZvbnQtZmFtaWx5PSJzYW5zLXNlcmlmIiBmb250LXNpemU9IjEzIiBsZW5ndGhBZGp1c3Q9InNwYWNpbmciIHRleHRMZW5ndGg9IjIzNyIgeD0iNjk4LjUiIHk9IjI5NC44MjgxIj5BZG1pbiBpbnZlc3RpZ2F0ZXMgZnJhdWQgYWxlcnQgI1JlZDwvdGV4dD48cG9seWdvbiBmaWxsPSIjMTgxODE4IiBwb2ludHM9IjcwMi41LDMyMi4zNjcyLDY5Mi41LDMyNi4zNjcyLDcwMi41LDMzMC4zNjcyLDY5OC41LDMyNi4zNjcyIiBzdHlsZT0ic3Ryb2tlOiMxODE4MTg7c3Ryb2tlLXdpZHRoOjEuMDsiLz48bGluZSBzdHlsZT0ic3Ryb2tlOiMxODE4MTg7c3Ryb2tlLXdpZHRoOjEuMDsiIHgxPSI2OTYuNSIgeDI9IjEwMzUuNSIgeTE9IjMyNi4zNjcyIiB5Mj0iMzI2LjM2NzIiLz48dGV4dCBmaWxsPSIjMDAwMDAwIiBmb250LWZhbWlseT0ic2Fucy1zZXJpZiIgZm9udC1zaXplPSIxMyIgbGVuZ3RoQWRqdXN0PSJzcGFjaW5nIiB0ZXh0TGVuZ3RoPSIzMjEiIHg9IjcwOC41IiB5PSIzMjIuNzQyMiI+VGFrZSBhY3Rpb24gKGZsYWcgdHJhbnNhY3Rpb25zIG9yIGRpc21pc3MgYWxlcnQpPC90ZXh0Pjxwb2x5Z29uIGZpbGw9IiMxODE4MTgiIHBvaW50cz0iMTAwLDM1MC4yODEzLDkwLDM1NC4yODEzLDEwMCwzNTguMjgxMyw5NiwzNTQuMjgxMyIgc3R5bGU9InN0cm9rZTojMTgxODE4O3N0cm9rZS13aWR0aDoxLjA7Ii8+PGxpbmUgc3R5bGU9InN0cm9rZTojMTgxODE4O3N0cm9rZS13aWR0aDoxLjA7IiB4MT0iOTQiIHgyPSI2OTAuNSIgeTE9IjM1NC4yODEzIiB5Mj0iMzU0LjI4MTMiLz48dGV4dCBmaWxsPSIjMDAwMDAwIiBmb250LWZhbWlseT0ic2Fucy1zZXJpZiIgZm9udC1zaXplPSIxMyIgbGVuZ3RoQWRqdXN0PSJzcGFjaW5nIiB0ZXh0TGVuZ3RoPSIxMjkiIHg9IjEwNiIgeT0iMzUwLjY1NjMiPlVwZGF0ZSBmcmF1ZCBzdGF0dXM8L3RleHQ+PCEtLVNSQz1bUFA3REppQ200OEpsVmVlTEZSR3p5MDh2OEFMX05BMTIxOEd1aGs5RE1DTXI4empmTFB1VUVxdmVxcnhqUnNQdFBacnhIUjJwczRkT2FBVklpejYwTWFBa283aHVDaFFmYjNhOXFRQnJON0FCc2lGM2hNMmhRelJxMEVYV2p6ZDJ4OE5oN196aVlWSEtqcFFNTzhNd09MclZZelFoWW1aRkt5dFVVQXd1bjd2R0dWUjhQSEJqWXE1SkRFVUx3Y1dnby1NMWZ0bS15ai1hT1lHaWxSNkdrRkpubmhlSE9meElvVnpxaEpLYkVJVFlqQ1VkazZtNmhxUHBiN2tCc2M3RkVRWjIwc2ZwR0NOYUgwbUx5QTNBbVh3WHFZaU05N2VTM05pWXJ3WkVsdEpaQ0l3M19KTllOSW12ZXhoVU9yNVEzZTVIR0pwSFNoSlI1bmRxZlBxMS10MmNXa2hBUFZQRUtlSm8wZmU3VDZWaTJRc3lIX0E0SDhqaWc4ZHJhUHBkNlpzdlV1Nk85b2Z6TjFPTHdOY096dTREbVQzMmViOU9KcGlDeUlNeDBwa05oOVYzN2RyOWRzdGVaT08xcGdGbHQxeTBdLS0+PC9nPjwvc3ZnPg==;" vertex="1" parent="1">
            <mxGeometry x="-430" y="950" width="1058" height="451" as="geometry" />
          </mxCell>
        </UserObject>
      </root>
    </mxGraphModel>
  </diagram>
</mxfile>
